<?xml version="1.0" encoding="UTF-8"?>
<!DOCTYPE svg PUBLIC "-//W3C//DTD SVG 1.1//EN" "http://www.w3.org/Graphics/SVG/1.1/DTD/svg11.dtd">
<svg xmlns="http://www.w3.org/2000/svg" version="1.1" width="420px" height="420px" style="shape-rendering:geometricPrecision; text-rendering:geometricPrecision; image-rendering:optimizeQuality; fill-rule:evenodd; clip-rule:evenodd" xmlns:xlink="http://www.w3.org/1999/xlink">
<g><path style="opacity:1" fill="#fdfdfd" d="M -0.5,48.5 C 139.5,48.5 279.5,48.5 419.5,48.5C 419.5,155.833 419.5,263.167 419.5,370.5C 279.5,370.5 139.5,370.5 -0.5,370.5C -0.5,263.167 -0.5,155.833 -0.5,48.5 Z"/></g>
<g><path style="opacity:1" fill="#252e4e" d="M 202.5,88.5 C 202.5,91.1667 202.5,93.8333 202.5,96.5C 206.167,96.5 209.833,96.5 213.5,96.5C 220.719,97.5078 227.886,98.8411 235,100.5C 235.945,100.095 236.612,99.428 237,98.5C 237.844,94.7894 238.844,91.1228 240,87.5C 240.561,86.9781 241.228,86.6448 242,86.5C 248.452,89.0323 254.618,92.0323 260.5,95.5C 255.167,101.5 249.5,107.167 243.5,112.5C 206.862,97.7862 174.362,104.12 146,131.5C 142.92,135.067 140.087,138.733 137.5,142.5C 135.194,140.861 133.194,138.861 131.5,136.5C 132.573,135.749 132.74,134.749 132,133.5C 127.86,131.35 124.36,128.517 121.5,125C 126.412,118.083 132.079,111.749 138.5,106C 139.635,105.251 140.635,105.417 141.5,106.5C 143.794,110.294 146.628,113.628 150,116.5C 158.346,109.909 167.513,104.743 177.5,101C 178.022,100.439 178.355,99.772 178.5,99C 177.102,94.5751 176.102,90.0751 175.5,85.5C 177.861,85.3259 180.194,84.9926 182.5,84.5C 188.833,83.8333 195.167,83.1667 201.5,82.5C 201.205,84.7354 201.539,86.7354 202.5,88.5 Z"/></g>
<g><path style="opacity:1" fill="#dbf2fc" d="M 313.5,262.5 C 311.842,263.181 310.175,264.015 308.5,265C 306.5,265.167 304.5,265.333 302.5,265.5C 300.048,265.461 298.048,264.794 296.5,263.5C 293.311,262.834 289.977,262.167 286.5,261.5C 287.524,260.148 288.524,258.815 289.5,257.5C 291.041,255.612 292.707,253.779 294.5,252C 290.94,249.295 287.44,246.462 284,243.5C 283.421,242.072 283.588,240.738 284.5,239.5C 290.5,239.5 296.5,239.5 302.5,239.5C 306.425,239.57 310.091,238.903 313.5,237.5C 314.167,237.5 314.5,237.167 314.5,236.5C 315.434,235.432 315.768,234.099 315.5,232.5C 314.167,232.5 312.833,232.5 311.5,232.5C 310.391,232.443 309.391,232.11 308.5,231.5C 305.841,229.836 303.175,228.17 300.5,226.5C 300.027,225.094 299.027,224.427 297.5,224.5C 295.847,224.34 294.514,223.674 293.5,222.5C 294.624,219.958 295.458,217.292 296,214.5C 296.388,213.572 297.055,212.905 298,212.5C 302.445,214.991 307.112,215.658 312,214.5C 313.419,208.91 314.252,203.243 314.5,197.5C 318.39,198.778 322.057,200.612 325.5,203C 326.793,203.49 328.127,203.657 329.5,203.5C 329.66,201.801 329.494,200.134 329,198.5C 326.935,194.677 324.435,191.344 321.5,188.5C 320.242,186.313 319.242,183.98 318.5,181.5C 318.33,180.178 318.663,179.011 319.5,178C 317.963,176.89 317.297,175.39 317.5,173.5C 316.167,173.5 314.833,173.5 313.5,173.5C 316.569,166.075 315.069,165.075 309,170.5C 305.606,169.544 302.106,169.211 298.5,169.5C 298.315,165.756 297.648,162.089 296.5,158.5C 297.465,155.872 299.132,153.872 301.5,152.5C 303.214,151.262 305.214,150.595 307.5,150.5C 307.585,147.351 306.585,144.684 304.5,142.5C 302.414,136.494 299.414,130.994 295.5,126C 291.417,127.366 287.75,129.7 284.5,133C 283.5,133.667 282.5,133.667 281.5,133C 275.273,124.938 267.939,118.105 259.5,112.5C 258.417,111.635 258.251,110.635 259,109.5C 261.048,105.9 263.214,102.4 265.5,99C 264.184,97.3413 262.518,96.1746 260.5,95.5C 254.618,92.0323 248.452,89.0323 242,86.5C 241.228,86.6448 240.561,86.9781 240,87.5C 238.844,91.1228 237.844,94.7894 237,98.5C 236.612,99.428 235.945,100.095 235,100.5C 227.886,98.8411 220.719,97.5078 213.5,96.5C 210.375,95.5206 207.042,95.1872 203.5,95.5C 203.818,90.9677 203.485,86.6344 202.5,82.5C 195.646,80.9605 188.98,81.6272 182.5,84.5C 180.194,84.9926 177.861,85.3259 175.5,85.5C 176.102,90.0751 177.102,94.5751 178.5,99C 178.355,99.772 178.022,100.439 177.5,101C 167.513,104.743 158.346,109.909 150,116.5C 146.628,113.628 143.794,110.294 141.5,106.5C 140.635,105.417 139.635,105.251 138.5,106C 132.079,111.749 126.412,118.083 121.5,125C 124.36,128.517 127.86,131.35 132,133.5C 132.74,134.749 132.573,135.749 131.5,136.5C 128.648,134.909 125.648,133.576 122.5,132.5C 120.285,131.732 117.952,131.065 115.5,130.5C 111.366,129.515 107.032,129.182 102.5,129.5C 134.575,81.9471 179.241,62.7805 236.5,72C 297.926,89.9631 330.259,131.13 333.5,195.5C 332.89,209.94 330.057,223.94 325,237.5C 321.136,245.891 317.302,254.224 313.5,262.5 Z"/></g>
<g><path style="opacity:1" fill="#a2aebe" d="M 202.5,82.5 C 203.485,86.6344 203.818,90.9677 203.5,95.5C 207.042,95.1872 210.375,95.5206 213.5,96.5C 209.833,96.5 206.167,96.5 202.5,96.5C 202.5,93.8333 202.5,91.1667 202.5,88.5C 202.5,86.5 202.5,84.5 202.5,82.5 Z"/></g>
<g><path style="opacity:1" fill="#515a72" d="M 202.5,82.5 C 202.5,84.5 202.5,86.5 202.5,88.5C 201.539,86.7354 201.205,84.7354 201.5,82.5C 195.167,83.1667 188.833,83.8333 182.5,84.5C 188.98,81.6272 195.646,80.9605 202.5,82.5 Z"/></g>
<g><path style="opacity:1" fill="#485883" d="M 260.5,95.5 C 262.518,96.1746 264.184,97.3413 265.5,99C 263.214,102.4 261.048,105.9 259,109.5C 258.251,110.635 258.417,111.635 259.5,112.5C 267.939,118.105 275.273,124.938 281.5,133C 282.5,133.667 283.5,133.667 284.5,133C 287.75,129.7 291.417,127.366 295.5,126C 299.414,130.994 302.414,136.494 304.5,142.5C 297.5,147.5 291.5,153.5 286.5,160.5C 285.349,156.503 283.849,152.503 282,148.5C 275.912,138.417 268.412,129.583 259.5,122C 254.237,118.54 248.904,115.373 243.5,112.5C 249.5,107.167 255.167,101.5 260.5,95.5 Z"/></g>
<g><path style="opacity:1" fill="#516796" d="M 243.5,112.5 C 248.904,115.373 254.237,118.54 259.5,122C 268.412,129.583 275.912,138.417 282,148.5C 283.849,152.503 285.349,156.503 286.5,160.5C 288.101,163.55 289.101,166.884 289.5,170.5C 288.508,170.328 287.842,170.662 287.5,171.5C 286.5,171.5 285.5,171.5 284.5,171.5C 275.685,138.187 254.351,118.02 220.5,111C 196.938,107.804 175.938,113.471 157.5,128C 151.231,133.763 145.564,139.929 140.5,146.5C 138.799,145.789 137.799,144.455 137.5,142.5C 140.087,138.733 142.92,135.067 146,131.5C 174.362,104.12 206.862,97.7862 243.5,112.5 Z"/></g>
<g><path style="opacity:1" fill="#dbf2fb" d="M 195.5,115.5 C 204.866,115.279 214.199,115.613 223.5,116.5C 254.64,123.973 273.64,143.306 280.5,174.5C 278.194,176.139 276.194,178.139 274.5,180.5C 272.833,181.167 271.167,181.833 269.5,182.5C 268.903,181.861 268.07,181.528 267,181.5C 264.778,183.194 262.278,184.194 259.5,184.5C 259.706,180.102 259.373,175.768 258.5,171.5C 258.703,169.61 258.037,168.11 256.5,167C 253.09,164.628 249.423,162.795 245.5,161.5C 244.167,159.5 242.5,157.833 240.5,156.5C 240.106,154.29 238.773,152.957 236.5,152.5C 235.653,151.034 234.32,150.2 232.5,150C 228.486,149.163 224.486,148.329 220.5,147.5C 220.167,146.5 219.5,145.833 218.5,145.5C 217.211,142.21 214.877,139.877 211.5,138.5C 205.541,137.586 199.541,137.253 193.5,137.5C 191.819,135.992 189.819,134.992 187.5,134.5C 185.205,132.615 182.538,132.115 179.5,133C 177.112,135.629 175.112,138.462 173.5,141.5C 170.585,146.017 168.751,151.017 168,156.5C 165.929,157.103 164.762,158.436 164.5,160.5C 163.069,161.78 162.402,163.447 162.5,165.5C 161.833,165.5 161.167,165.5 160.5,165.5C 159.168,164.17 158.335,162.503 158,160.5C 156.703,161.784 155.536,161.617 154.5,160C 156.301,159.683 156.634,159.016 155.5,158C 153.717,157.768 152.05,158.268 150.5,159.5C 148.823,158.813 147.156,158.146 145.5,157.5C 145.5,156.833 145.167,156.5 144.5,156.5C 144.167,155.167 143.833,153.833 143.5,152.5C 154.813,131.832 172.147,119.499 195.5,115.5 Z"/></g>
<g><path style="opacity:1" fill="#eea193" d="M 102.5,129.5 C 107.032,129.182 111.366,129.515 115.5,130.5C 108.804,130.391 102.137,130.724 95.5,131.5C 97.5145,130.076 99.8478,129.41 102.5,129.5 Z"/></g>
<g><path style="opacity:1" fill="#fa3d18" d="M 122.5,132.5 C 123.024,134.306 123.691,135.972 124.5,137.5C 129.245,143.273 134.245,148.94 139.5,154.5C 139.952,157.674 140.952,158.007 142.5,155.5C 143.183,155.863 143.85,156.196 144.5,156.5C 145.167,156.5 145.5,156.833 145.5,157.5C 148.414,162.458 152.747,165.124 158.5,165.5C 159.85,166.824 159.683,167.824 158,168.5C 147.768,164.743 143.768,168.076 146,178.5C 148.687,179.713 151.52,180.38 154.5,180.5C 154.5,181.833 154.5,183.167 154.5,184.5C 154.167,184.5 153.833,184.5 153.5,184.5C 147.855,183.284 142.188,183.284 136.5,184.5C 138.385,182.689 140.719,181.522 143.5,181C 141.959,179.421 140.792,177.587 140,175.5C 139.74,171.75 139.073,168.084 138,164.5C 133.791,175.872 126.291,184.205 115.5,189.5C 105.393,191.888 96.0601,190.221 87.5,184.5C 85.0731,181.131 82.0731,178.464 78.5,176.5C 78.573,174.973 77.9063,173.973 76.5,173.5C 74.9565,171.072 73.9565,168.406 73.5,165.5C 78.5033,168.668 83.8367,171.335 89.5,173.5C 89.8333,173.5 90.1667,173.5 90.5,173.5C 90.9731,174.906 91.9731,175.573 93.5,175.5C 95.1852,177.818 97.5185,178.818 100.5,178.5C 102.881,179.83 105.214,179.664 107.5,178C 110.642,173.387 113.308,168.554 115.5,163.5C 119.314,160.848 120.481,157.181 119,152.5C 116.414,150.455 113.58,148.789 110.5,147.5C 109.702,147.043 109.369,146.376 109.5,145.5C 109.586,144.504 109.252,143.671 108.5,143C 102.175,142.28 99.5087,138.947 100.5,133C 107.791,131.295 115.125,131.128 122.5,132.5 Z"/></g>
<g><path style="opacity:1" fill="#2b3352" d="M 287.5,171.5 C 285.58,172.065 283.913,173.065 282.5,174.5C 281.833,174.5 281.167,174.5 280.5,174.5C 273.64,143.306 254.64,123.973 223.5,116.5C 222.737,115.732 221.737,115.232 220.5,115C 211.99,114.177 203.656,114.343 195.5,115.5C 172.147,119.499 154.813,131.832 143.5,152.5C 141.992,150.819 140.992,148.819 140.5,146.5C 145.564,139.929 151.231,133.763 157.5,128C 175.938,113.471 196.938,107.804 220.5,111C 254.351,118.02 275.685,138.187 284.5,171.5C 285.5,171.5 286.5,171.5 287.5,171.5 Z"/></g>
<g><path style="opacity:1" fill="#a1acbd" d="M 195.5,115.5 C 203.656,114.343 211.99,114.177 220.5,115C 221.737,115.232 222.737,115.732 223.5,116.5C 214.199,115.613 204.866,115.279 195.5,115.5 Z"/></g>
<g><path style="opacity:1" fill="#f54b28" d="M 115.5,130.5 C 117.952,131.065 120.285,131.732 122.5,132.5C 115.125,131.128 107.791,131.295 100.5,133C 99.5087,138.947 102.175,142.28 108.5,143C 109.252,143.671 109.586,144.504 109.5,145.5C 108.833,145.5 108.167,145.5 107.5,145.5C 107.027,144.094 106.027,143.427 104.5,143.5C 102.046,142.773 99.7128,141.773 97.5,140.5C 97.0269,139.094 96.0269,138.427 94.5,138.5C 94.0269,137.094 93.0269,136.427 91.5,136.5C 89.3141,136.489 88.4808,135.489 89,133.5C 90.897,131.984 93.0637,131.317 95.5,131.5C 102.137,130.724 108.804,130.391 115.5,130.5 Z"/></g>
<g><path style="opacity:1" fill="#f4d379" d="M 187.5,134.5 C 182.656,133.025 181.323,133.025 183.5,134.5C 183.919,137.325 182.919,139.491 180.5,141C 177.975,141.144 175.642,141.31 173.5,141.5C 175.112,138.462 177.112,135.629 179.5,133C 182.538,132.115 185.205,132.615 187.5,134.5 Z"/></g>
<g><path style="opacity:1" fill="#fdc940" d="M 187.5,134.5 C 189.819,134.992 191.819,135.992 193.5,137.5C 195.148,138.927 197.148,139.76 199.5,140C 198.167,141 198.167,142 199.5,143C 203.704,143.821 207.204,142.654 210,139.5C 213.257,140.927 216.09,142.927 218.5,145.5C 219.5,145.833 220.167,146.5 220.5,147.5C 221.429,148.315 222.429,149.148 223.5,150C 221.519,150.605 221.185,151.605 222.5,153C 225.963,154.035 228.796,153.202 231,150.5C 232.725,151.464 234.559,152.131 236.5,152.5C 238.773,152.957 240.106,154.29 240.5,156.5C 241.167,159.167 242.833,160.833 245.5,161.5C 249.423,162.795 253.09,164.628 256.5,167C 258.037,168.11 258.703,169.61 258.5,171.5C 257.883,171.389 257.383,171.056 257,170.5C 253.645,174.449 250.812,178.783 248.5,183.5C 244.596,182.191 240.596,181.191 236.5,180.5C 235.544,179.341 234.544,178.174 233.5,177C 235.267,174.293 236.434,171.46 237,168.5C 234.574,171.691 232.407,175.025 230.5,178.5C 226.093,177.031 221.76,175.364 217.5,173.5C 215.25,173.049 213.916,171.715 213.5,169.5C 214.351,167.147 214.851,164.813 215,162.5C 212.962,165.243 211.462,168.243 210.5,171.5C 208.708,171.634 207.042,171.301 205.5,170.5C 205.373,165.949 205.206,161.282 205,156.5C 204.044,155.106 202.711,154.439 201,154.5C 198.667,155.176 196.5,155.176 194.5,154.5C 193.692,152.577 193.192,150.577 193,148.5C 191.589,150.65 190.755,152.984 190.5,155.5C 183.506,156 176.506,156.5 169.5,157C 168.549,157.718 168.383,158.551 169,159.5C 171,158.833 173,158.167 175,157.5C 180.289,157.595 185.789,157.595 191.5,157.5C 191.67,158.822 191.337,159.989 190.5,161C 186.305,162.84 182.138,164.673 178,166.5C 174.699,166.501 171.199,166.334 167.5,166C 167.12,163.674 166.12,161.841 164.5,160.5C 164.762,158.436 165.929,157.103 168,156.5C 168.751,151.017 170.585,146.017 173.5,141.5C 175.642,141.31 177.975,141.144 180.5,141C 182.919,139.491 183.919,137.325 183.5,134.5C 181.323,133.025 182.656,133.025 187.5,134.5 Z"/></g>
<g><path style="opacity:1" fill="#ee9d8d" d="M 91.5,136.5 C 93.0269,136.427 94.0269,137.094 94.5,138.5C 92.9731,138.573 91.9731,137.906 91.5,136.5 Z"/></g>
<g><path style="opacity:1" fill="#fa7648" d="M 139.5,154.5 C 134.245,148.94 129.245,143.273 124.5,137.5C 124.369,136.761 124.536,136.094 125,135.5C 132.859,140.035 137.692,146.368 139.5,154.5 Z"/></g>
<g><path style="opacity:1" fill="#f4d47d" d="M 193.5,137.5 C 199.541,137.253 205.541,137.586 211.5,138.5C 214.877,139.877 217.211,142.21 218.5,145.5C 216.09,142.927 213.257,140.927 210,139.5C 207.204,142.654 203.704,143.821 199.5,143C 198.167,142 198.167,141 199.5,140C 197.148,139.76 195.148,138.927 193.5,137.5 Z"/></g>
<g><path style="opacity:1" fill="#ddf0fa" d="M 97.5,140.5 C 99.7128,141.773 102.046,142.773 104.5,143.5C 104.973,144.906 105.973,145.573 107.5,145.5C 108.167,145.5 108.833,145.5 109.5,145.5C 109.369,146.376 109.702,147.043 110.5,147.5C 113.58,148.789 116.414,150.455 119,152.5C 120.481,157.181 119.314,160.848 115.5,163.5C 111.902,163.393 108.402,162.726 105,161.5C 104.5,161.833 104,162.167 103.5,162.5C 101.862,167.717 100.862,173.05 100.5,178.5C 97.5185,178.818 95.1852,177.818 93.5,175.5C 93.0269,174.094 92.0269,173.427 90.5,173.5C 90.1667,173.5 89.8333,173.5 89.5,173.5C 89.179,172.183 88.8457,170.849 88.5,169.5C 90.8581,160.542 93.0248,151.542 95,142.5C 95.7083,141.619 96.5416,140.953 97.5,140.5 Z"/></g>
<g><path style="opacity:1" fill="#ed8873" d="M 104.5,143.5 C 106.027,143.427 107.027,144.094 107.5,145.5C 105.973,145.573 104.973,144.906 104.5,143.5 Z"/></g>
<g><path style="opacity:1" fill="#e25132" d="M 122.5,132.5 C 125.648,133.576 128.648,134.909 131.5,136.5C 133.194,138.861 135.194,140.861 137.5,142.5C 137.799,144.455 138.799,145.789 140.5,146.5C 140.992,148.819 141.992,150.819 143.5,152.5C 143.833,153.833 144.167,155.167 144.5,156.5C 143.85,156.196 143.183,155.863 142.5,155.5C 140.952,158.007 139.952,157.674 139.5,154.5C 137.692,146.368 132.859,140.035 125,135.5C 124.536,136.094 124.369,136.761 124.5,137.5C 123.691,135.972 123.024,134.306 122.5,132.5 Z"/></g>
<g><path style="opacity:1" fill="#f4d582" d="M 220.5,147.5 C 224.486,148.329 228.486,149.163 232.5,150C 234.32,150.2 235.653,151.034 236.5,152.5C 234.559,152.131 232.725,151.464 231,150.5C 228.796,153.202 225.963,154.035 222.5,153C 221.185,151.605 221.519,150.605 223.5,150C 222.429,149.148 221.429,148.315 220.5,147.5 Z"/></g>
<g><path style="opacity:1" fill="#fdaf07" d="M 205.5,170.5 C 204.167,170.5 203.5,169.833 203.5,168.5C 203.631,167.761 203.464,167.094 203,166.5C 198.117,172.919 191.95,177.252 184.5,179.5C 176.103,179.849 175.77,180.849 183.5,182.5C 179.663,186.83 180.497,187.496 186,184.5C 187.731,185.741 189.564,186.741 191.5,187.5C 200.804,194.638 208.971,202.972 216,212.5C 216.195,210.793 216.195,209.126 216,207.5C 217.47,208.267 218.97,208.933 220.5,209.5C 221.848,210.601 223.348,211.601 225,212.5C 225.163,210.613 224.329,209.113 222.5,208C 226.541,207.827 230.541,207.327 234.5,206.5C 235.988,204.423 237.988,203.423 240.5,203.5C 242.167,203.5 243.833,203.5 245.5,203.5C 248.101,204.801 250.768,206.134 253.5,207.5C 253.5,207.833 253.5,208.167 253.5,208.5C 251.733,210.792 250.733,213.458 250.5,216.5C 250.233,218.965 249.566,221.299 248.5,223.5C 248.167,223.5 247.833,223.5 247.5,223.5C 247.565,223.062 247.399,222.728 247,222.5C 242.161,225.673 238.828,230.006 237,235.5C 234.622,237.709 232.455,240.042 230.5,242.5C 232.38,248.801 234.046,255.135 235.5,261.5C 226.318,261.173 217.318,261.507 208.5,262.5C 207.211,265.76 205.878,269.094 204.5,272.5C 202.825,269.493 202.159,266.16 202.5,262.5C 202.406,256.465 202.239,250.465 202,244.5C 203.523,242.211 205.356,241.044 207.5,241C 200.363,238.787 192.863,235.62 185,231.5C 184.517,232.448 184.351,233.448 184.5,234.5C 174.123,222.955 164.29,210.955 155,198.5C 155.056,194.151 155.556,189.817 156.5,185.5C 158.176,184.817 158.843,183.483 158.5,181.5C 159.226,175.993 160.56,170.659 162.5,165.5C 162.402,163.447 163.069,161.78 164.5,160.5C 166.12,161.841 167.12,163.674 167.5,166C 171.199,166.334 174.699,166.501 178,166.5C 182.138,164.673 186.305,162.84 190.5,161C 191.337,159.989 191.67,158.822 191.5,157.5C 185.789,157.595 180.289,157.595 175,157.5C 173,158.167 171,158.833 169,159.5C 168.383,158.551 168.549,157.718 169.5,157C 176.506,156.5 183.506,156 190.5,155.5C 190.755,152.984 191.589,150.65 193,148.5C 193.192,150.577 193.692,152.577 194.5,154.5C 196.5,155.176 198.667,155.176 201,154.5C 202.711,154.439 204.044,155.106 205,156.5C 205.206,161.282 205.373,165.949 205.5,170.5 Z"/></g>
<g><path style="opacity:1" fill="#262d4c" d="M 304.5,142.5 C 306.585,144.684 307.585,147.351 307.5,150.5C 305.214,150.595 303.214,151.262 301.5,152.5C 298.17,152.642 295.837,154.142 294.5,157C 296.05,161.033 297.05,165.2 297.5,169.5C 294.763,169.401 292.096,169.735 289.5,170.5C 289.101,166.884 288.101,163.55 286.5,160.5C 291.5,153.5 297.5,147.5 304.5,142.5 Z"/></g>
<g><path style="opacity:1" fill="#b2c1d1" d="M 301.5,152.5 C 299.132,153.872 297.465,155.872 296.5,158.5C 297.648,162.089 298.315,165.756 298.5,169.5C 298.167,169.5 297.833,169.5 297.5,169.5C 297.05,165.2 296.05,161.033 294.5,157C 295.837,154.142 298.17,152.642 301.5,152.5 Z"/></g>
<g><path style="opacity:1" fill="#e9ddde" d="M 145.5,157.5 C 147.156,158.146 148.823,158.813 150.5,159.5C 152.05,158.268 153.717,157.768 155.5,158C 156.634,159.016 156.301,159.683 154.5,160C 155.536,161.617 156.703,161.784 158,160.5C 158.335,162.503 159.168,164.17 160.5,165.5C 159.833,165.5 159.167,165.5 158.5,165.5C 152.747,165.124 148.414,162.458 145.5,157.5 Z"/></g>
<g><path style="opacity:1" fill="#f4d88b" d="M 240.5,156.5 C 242.5,157.833 244.167,159.5 245.5,161.5C 242.833,160.833 241.167,159.167 240.5,156.5 Z"/></g>
<g><path style="opacity:1" fill="#25243c" d="M 115.5,163.5 C 113.308,168.554 110.642,173.387 107.5,178C 105.214,179.664 102.881,179.83 100.5,178.5C 100.862,173.05 101.862,167.717 103.5,162.5C 104,162.167 104.5,161.833 105,161.5C 108.402,162.726 111.902,163.393 115.5,163.5 Z"/></g>
<g><path style="opacity:1" fill="#e6e3e7" d="M 318.5,181.5 C 314.62,177.455 310.287,173.955 305.5,171C 303.19,170.503 300.857,170.337 298.5,170.5C 298.5,170.167 298.5,169.833 298.5,169.5C 302.106,169.211 305.606,169.544 309,170.5C 315.069,165.075 316.569,166.075 313.5,173.5C 314.833,173.5 316.167,173.5 317.5,173.5C 317.297,175.39 317.963,176.89 319.5,178C 318.663,179.011 318.33,180.178 318.5,181.5 Z"/></g>
<g><path style="opacity:1" fill="#c30f2b" d="M 136.5,184.5 C 134.801,184.34 133.134,184.506 131.5,185C 126.004,188.916 120.337,192.582 114.5,196C 103.024,199.343 93.8569,196.177 87,186.5C 86.3083,185.563 86.475,184.897 87.5,184.5C 90.701,187.937 94.701,190.104 99.5,191C 103.833,191.667 108.167,191.667 112.5,191C 113.737,190.768 114.737,190.268 115.5,189.5C 126.291,184.205 133.791,175.872 138,164.5C 139.073,168.084 139.74,171.75 140,175.5C 140.792,177.587 141.959,179.421 143.5,181C 140.719,181.522 138.385,182.689 136.5,184.5 Z"/></g>
<g><path style="opacity:1" fill="#b6112c" d="M 158.5,165.5 C 159.167,165.5 159.833,165.5 160.5,165.5C 161.167,165.5 161.833,165.5 162.5,165.5C 160.56,170.659 159.226,175.993 158.5,181.5C 157.596,182.209 157.263,183.209 157.5,184.5C 156.5,184.5 155.5,184.5 154.5,184.5C 154.5,183.167 154.5,181.833 154.5,180.5C 151.52,180.38 148.687,179.713 146,178.5C 143.768,168.076 147.768,164.743 158,168.5C 159.683,167.824 159.85,166.824 158.5,165.5 Z"/></g>
<g><path style="opacity:1" fill="#f78a04" d="M 203.5,168.5 C 203.5,169.833 204.167,170.5 205.5,170.5C 207.042,171.301 208.708,171.634 210.5,171.5C 207.507,178.154 204.507,184.821 201.5,191.5C 198.435,189.111 195.101,187.111 191.5,185.5C 190.537,185.97 190.537,186.637 191.5,187.5C 189.564,186.741 187.731,185.741 186,184.5C 180.497,187.496 179.663,186.83 183.5,182.5C 175.77,180.849 176.103,179.849 184.5,179.5C 184.442,183.701 185.442,184.201 187.5,181C 194.78,179.213 200.113,175.046 203.5,168.5 Z"/></g>
<g><path style="opacity:1" fill="#d36e05" d="M 217.5,173.5 C 215.983,174.735 214.316,174.735 212.5,173.5C 210.455,180.013 208.455,186.513 206.5,193C 208.31,196.942 210.643,200.609 213.5,204C 216.151,204.153 218.484,204.987 220.5,206.5C 221.625,207.652 221.625,208.652 220.5,209.5C 218.97,208.933 217.47,208.267 216,207.5C 216.195,209.126 216.195,210.793 216,212.5C 208.971,202.972 200.804,194.638 191.5,187.5C 190.537,186.637 190.537,185.97 191.5,185.5C 195.101,187.111 198.435,189.111 201.5,191.5C 204.507,184.821 207.507,178.154 210.5,171.5C 211.462,168.243 212.962,165.243 215,162.5C 214.851,164.813 214.351,167.147 213.5,169.5C 213.916,171.715 215.25,173.049 217.5,173.5 Z"/></g>
<g><path style="opacity:1" fill="#b1412e" d="M 297.5,169.5 C 297.833,169.5 298.167,169.5 298.5,169.5C 298.5,169.833 298.5,170.167 298.5,170.5C 294.821,170.724 291.154,171.058 287.5,171.5C 287.842,170.662 288.508,170.328 289.5,170.5C 292.096,169.735 294.763,169.401 297.5,169.5 Z"/></g>
<g><path style="opacity:1" fill="#fcb424" d="M 258.5,171.5 C 259.373,175.768 259.706,180.102 259.5,184.5C 257.833,184.5 256.167,184.5 254.5,184.5C 254.657,183.127 254.49,181.793 254,180.5C 252.512,182.16 250.679,183.16 248.5,183.5C 250.812,178.783 253.645,174.449 257,170.5C 257.383,171.056 257.883,171.389 258.5,171.5 Z"/></g>
<g><path style="opacity:1" fill="#ee4826" d="M 298.5,170.5 C 300.857,170.337 303.19,170.503 305.5,171C 310.287,173.955 314.62,177.455 318.5,181.5C 319.242,183.98 320.242,186.313 321.5,188.5C 321.5,189.167 321.167,189.5 320.5,189.5C 313.991,176.912 303.657,171.745 289.5,174C 288.29,175.039 287.29,176.206 286.5,177.5C 285.596,176.791 285.263,175.791 285.5,174.5C 284.5,174.5 283.5,174.5 282.5,174.5C 283.913,173.065 285.58,172.065 287.5,171.5C 291.154,171.058 294.821,170.724 298.5,170.5 Z"/></g>
<g><path style="opacity:1" fill="#d46f05" d="M 203.5,168.5 C 200.113,175.046 194.78,179.213 187.5,181C 185.442,184.201 184.442,183.701 184.5,179.5C 191.95,177.252 198.117,172.919 203,166.5C 203.464,167.094 203.631,167.761 203.5,168.5 Z"/></g>
<g><path style="opacity:1" fill="#fc7e4f" d="M 320.5,189.5 C 322.408,192.312 324.075,195.312 325.5,198.5C 325.167,198.833 324.833,199.167 324.5,199.5C 316.691,195.429 309.024,191.095 301.5,186.5C 295.971,184.288 290.971,181.288 286.5,177.5C 287.29,176.206 288.29,175.039 289.5,174C 303.657,171.745 313.991,176.912 320.5,189.5 Z"/></g>
<g><path style="opacity:1" fill="#efb0a4" d="M 90.5,173.5 C 92.0269,173.427 93.0269,174.094 93.5,175.5C 91.9731,175.573 90.9731,174.906 90.5,173.5 Z"/></g>
<g><path style="opacity:1" fill="#fb8c03" d="M 217.5,173.5 C 221.76,175.364 226.093,177.031 230.5,178.5C 226.298,187.477 222.965,196.811 220.5,206.5C 218.484,204.987 216.151,204.153 213.5,204C 210.643,200.609 208.31,196.942 206.5,193C 208.455,186.513 210.455,180.013 212.5,173.5C 214.316,174.735 215.983,174.735 217.5,173.5 Z"/></g>
<g><path style="opacity:1" fill="#ee9d8d" d="M 76.5,173.5 C 77.9063,173.973 78.573,174.973 78.5,176.5C 77.0937,176.027 76.427,175.027 76.5,173.5 Z"/></g>
<g><path style="opacity:1" fill="#fb3d16" d="M 280.5,174.5 C 281.167,174.5 281.833,174.5 282.5,174.5C 283.5,174.5 284.5,174.5 285.5,174.5C 285.263,175.791 285.596,176.791 286.5,177.5C 290.971,181.288 295.971,184.288 301.5,186.5C 301.611,187.117 301.944,187.617 302.5,188C 300.934,188.608 299.6,189.442 298.5,190.5C 297.29,190.932 296.29,191.599 295.5,192.5C 293.5,192.5 292.5,193.5 292.5,195.5C 291.094,195.973 290.427,196.973 290.5,198.5C 290.737,199.791 290.404,200.791 289.5,201.5C 284.871,205.721 283.538,210.721 285.5,216.5C 285.215,218.288 285.548,219.955 286.5,221.5C 287.799,222.09 288.632,223.09 289,224.5C 289.333,224.167 289.667,223.833 290,223.5C 291.947,224.11 293.781,224.943 295.5,226C 294.833,226.333 294.167,226.667 293.5,227C 296.615,227.03 299.115,228.197 301,230.5C 301.414,230.043 301.914,229.709 302.5,229.5C 304.323,230.747 306.323,231.414 308.5,231.5C 305.024,232.643 301.358,232.81 297.5,232C 294.176,231.057 290.843,230.224 287.5,229.5C 282.843,225.84 278.843,221.507 275.5,216.5C 272.835,205.515 272.835,194.515 275.5,183.5C 275.315,182.416 274.982,181.416 274.5,180.5C 276.194,178.139 278.194,176.139 280.5,174.5 Z"/></g>
<g><path style="opacity:1" fill="#f88a04" d="M 236.5,180.5 C 240.596,181.191 244.596,182.191 248.5,183.5C 250.679,183.16 252.512,182.16 254,180.5C 254.49,181.793 254.657,183.127 254.5,184.5C 256.167,184.5 257.833,184.5 259.5,184.5C 259.5,184.833 259.5,185.167 259.5,185.5C 255.347,184.98 251.347,184.98 247.5,185.5C 243.879,190.569 240.879,196.069 238.5,202C 239.416,202.278 240.082,202.778 240.5,203.5C 237.988,203.423 235.988,204.423 234.5,206.5C 230.541,207.327 226.541,207.827 222.5,208C 224.329,209.113 225.163,210.613 225,212.5C 223.348,211.601 221.848,210.601 220.5,209.5C 221.625,208.652 221.625,207.652 220.5,206.5C 222.5,206.5 224.5,206.5 226.5,206.5C 227.802,197.796 229.802,189.296 232.5,181C 233.793,180.51 235.127,180.343 236.5,180.5 Z"/></g>
<g><path style="opacity:1" fill="#cf6a04" d="M 236.5,180.5 C 235.127,180.343 233.793,180.51 232.5,181C 229.802,189.296 227.802,197.796 226.5,206.5C 224.5,206.5 222.5,206.5 220.5,206.5C 222.965,196.811 226.298,187.477 230.5,178.5C 232.407,175.025 234.574,171.691 237,168.5C 236.434,171.46 235.267,174.293 233.5,177C 234.544,178.174 235.544,179.341 236.5,180.5 Z"/></g>
<g><path style="opacity:1" fill="#eccdc9" d="M 269.5,182.5 C 269.5,182.833 269.5,183.167 269.5,183.5C 266.237,184.482 262.903,185.149 259.5,185.5C 259.5,185.167 259.5,184.833 259.5,184.5C 262.278,184.194 264.778,183.194 267,181.5C 268.07,181.528 268.903,181.861 269.5,182.5 Z"/></g>
<g><path style="opacity:1" fill="#dc2c25" d="M 274.5,180.5 C 274.982,181.416 275.315,182.416 275.5,183.5C 272.835,194.515 272.835,205.515 275.5,216.5C 273.39,212.316 272.057,207.816 271.5,203C 271.961,198.256 272.628,192.922 273.5,187C 273.472,185.93 273.139,185.097 272.5,184.5C 271.791,183.596 270.791,183.263 269.5,183.5C 269.5,183.167 269.5,182.833 269.5,182.5C 271.167,181.833 272.833,181.167 274.5,180.5 Z"/></g>
<g><path style="opacity:1" fill="#edb9b0" d="M 153.5,184.5 C 153.5,184.833 153.5,185.167 153.5,185.5C 147.122,185.295 140.789,185.628 134.5,186.5C 135.167,185.833 135.833,185.167 136.5,184.5C 142.188,183.284 147.855,183.284 153.5,184.5 Z"/></g>
<g><path style="opacity:1" fill="#d77c23" d="M 158.5,181.5 C 158.843,183.483 158.176,184.817 156.5,185.5C 155.5,185.5 154.5,185.5 153.5,185.5C 153.5,185.167 153.5,184.833 153.5,184.5C 153.833,184.5 154.167,184.5 154.5,184.5C 155.5,184.5 156.5,184.5 157.5,184.5C 157.263,183.209 157.596,182.209 158.5,181.5 Z"/></g>
<g><path style="opacity:1" fill="#c10c2c" d="M 272.5,184.5 C 273.139,185.097 273.472,185.93 273.5,187C 272.628,192.922 271.961,198.256 271.5,203C 272.057,207.816 273.39,212.316 275.5,216.5C 278.843,221.507 282.843,225.84 287.5,229.5C 288.6,230.558 289.934,231.392 291.5,232C 297.973,233.571 304.306,234.571 310.5,235C 306.658,235.956 302.825,236.79 299,237.5C 296.333,237.5 293.667,237.5 291,237.5C 277.327,236.492 268.327,229.492 264,216.5C 263.359,210.472 263.526,204.472 264.5,198.5C 265.936,194.928 267.436,191.261 269,187.5C 270.039,186.29 271.206,185.29 272.5,184.5 Z"/></g>
<g><path style="opacity:1" fill="#f63c1b" d="M 269.5,183.5 C 270.791,183.263 271.791,183.596 272.5,184.5C 271.206,185.29 270.039,186.29 269,187.5C 267.436,191.261 265.936,194.928 264.5,198.5C 261.456,205.727 261.122,213.061 263.5,220.5C 263.167,220.5 262.833,220.5 262.5,220.5C 260.732,215.292 257.732,210.958 253.5,207.5C 250.768,206.134 248.101,204.801 245.5,203.5C 246.156,202.722 246.989,202.056 248,201.5C 257.962,203.877 261.129,200.377 257.5,191C 254.5,190 251.5,189 248.5,188C 247.748,187.329 247.414,186.496 247.5,185.5C 251.347,184.98 255.347,184.98 259.5,185.5C 262.903,185.149 266.237,184.482 269.5,183.5 Z"/></g>
<g><path style="opacity:1" fill="#dbf2fb" d="M 153.5,185.5 C 154.5,185.5 155.5,185.5 156.5,185.5C 155.556,189.817 155.056,194.151 155,198.5C 164.29,210.955 174.123,222.955 184.5,234.5C 184.5,234.833 184.5,235.167 184.5,235.5C 184.795,237.423 185.628,239.09 187,240.5C 187.13,246.687 187.297,252.687 187.5,258.5C 187.5,258.833 187.5,259.167 187.5,259.5C 158.267,250.425 140.767,230.759 135,200.5C 134.501,196.179 134.334,191.846 134.5,187.5C 134.5,187.167 134.5,186.833 134.5,186.5C 140.789,185.628 147.122,185.295 153.5,185.5 Z"/></g>
<g><path style="opacity:1" fill="#df3928" d="M 78.5,176.5 C 82.0731,178.464 85.0731,181.131 87.5,184.5C 86.475,184.897 86.3083,185.563 87,186.5C 93.8569,196.177 103.024,199.343 114.5,196C 120.337,192.582 126.004,188.916 131.5,185C 133.134,184.506 134.801,184.34 136.5,184.5C 135.833,185.167 135.167,185.833 134.5,186.5C 134.5,186.833 134.5,187.167 134.5,187.5C 133.167,187.833 131.833,188.167 130.5,188.5C 128.973,188.427 127.973,189.094 127.5,190.5C 125.246,191.124 123.579,192.457 122.5,194.5C 119.669,195.079 117.336,196.412 115.5,198.5C 114.041,198.433 112.708,198.766 111.5,199.5C 105.551,200.037 99.8843,199.204 94.5,197C 90.6019,193.271 86.9352,189.438 83.5,185.5C 82.2625,182.262 80.5958,179.262 78.5,176.5 Z"/></g>
<g><path style="opacity:1" fill="#da2423" d="M 87.5,184.5 C 96.0601,190.221 105.393,191.888 115.5,189.5C 114.737,190.268 113.737,190.768 112.5,191C 108.167,191.667 103.833,191.667 99.5,191C 94.701,190.104 90.701,187.937 87.5,184.5 Z"/></g>
<g><path style="opacity:1" fill="#733d31" d="M 130.5,188.5 C 130.167,189.167 129.833,189.833 129.5,190.5C 128.833,190.5 128.167,190.5 127.5,190.5C 127.973,189.094 128.973,188.427 130.5,188.5 Z"/></g>
<g><path style="opacity:1" fill="#fdc83c" d="M 184.5,189.5 C 198.197,194.031 207.531,203.364 212.5,217.5C 211.855,218.646 211.022,219.646 210,220.5C 196.931,215.41 187.097,206.91 180.5,195C 181.007,192.455 182.341,190.621 184.5,189.5 Z"/></g>
<g><path style="opacity:1" fill="#bb122c" d="M 247.5,185.5 C 247.414,186.496 247.748,187.329 248.5,188C 251.5,189 254.5,190 257.5,191C 261.129,200.377 257.962,203.877 248,201.5C 246.989,202.056 246.156,202.722 245.5,203.5C 243.833,203.5 242.167,203.5 240.5,203.5C 240.082,202.778 239.416,202.278 238.5,202C 240.879,196.069 243.879,190.569 247.5,185.5 Z"/></g>
<g><path style="opacity:1" fill="#4c1d26" d="M 298.5,190.5 C 300.527,190.338 302.527,190.505 304.5,191C 305.056,191.383 305.389,191.883 305.5,192.5C 301.975,191.006 298.642,191.339 295.5,193.5C 295.5,193.167 295.5,192.833 295.5,192.5C 296.29,191.599 297.29,190.932 298.5,190.5 Z"/></g>
<g><path style="opacity:1" fill="#1a1f39" d="M 305.5,192.5 C 306.492,192.328 307.158,192.662 307.5,193.5C 309.181,195.008 311.181,196.008 313.5,196.5C 314.167,196.5 314.5,196.833 314.5,197.5C 314.252,203.243 313.419,208.91 312,214.5C 307.112,215.658 302.445,214.991 298,212.5C 297.055,212.905 296.388,213.572 296,214.5C 295.458,217.292 294.624,219.958 293.5,222.5C 290.883,221.214 288.55,219.547 286.5,217.5C 288.504,212.475 289.504,207.142 289.5,201.5C 290.404,200.791 290.737,199.791 290.5,198.5C 291.906,198.027 292.573,197.027 292.5,195.5C 293.5,194.833 294.5,194.167 295.5,193.5C 298.642,191.339 301.975,191.006 305.5,192.5 Z"/></g>
<g><path style="opacity:1" fill="#a43528" d="M 295.5,192.5 C 295.5,192.833 295.5,193.167 295.5,193.5C 294.5,194.167 293.5,194.833 292.5,195.5C 292.5,193.5 293.5,192.5 295.5,192.5 Z"/></g>
<g><path style="opacity:1" fill="#521f26" d="M 307.5,193.5 C 310.089,193.461 312.089,194.461 313.5,196.5C 311.181,196.008 309.181,195.008 307.5,193.5 Z"/></g>
<g><path style="opacity:1" fill="#dcf3fd" d="M 111.5,199.5 C 112.708,198.766 114.041,198.433 115.5,198.5C 115.014,203.699 115.681,208.699 117.5,213.5C 116.358,216.399 115.692,219.399 115.5,222.5C 112.833,223.167 110.167,223.833 107.5,224.5C 108.397,229.192 108.397,233.858 107.5,238.5C 108.302,241.574 109.302,244.574 110.5,247.5C 111.2,244.985 112.533,244.318 114.5,245.5C 115.314,247.766 115.814,250.1 116,252.5C 116.689,251.643 117.522,250.977 118.5,250.5C 120.432,251.52 122.432,251.687 124.5,251C 128.019,247.298 130.353,247.798 131.5,252.5C 134.127,251.908 136.794,251.575 139.5,251.5C 139.36,253.124 140.027,254.29 141.5,255C 141.167,255.333 140.833,255.667 140.5,256C 141.905,257.269 143.571,257.769 145.5,257.5C 145.833,257.5 146.167,257.5 146.5,257.5C 146.64,259.124 145.973,260.29 144.5,261C 134.658,261.17 124.991,261.67 115.5,262.5C 114.596,263.209 114.263,264.209 114.5,265.5C 111.615,265.806 108.948,265.473 106.5,264.5C 84.1913,262.51 61.5246,261.844 38.5,262.5C 37.1667,262.5 35.8333,262.5 34.5,262.5C 32.8333,262.5 31.1667,262.5 29.5,262.5C 54.6699,261.833 80.0032,261.167 105.5,260.5C 93.0537,241.152 86.387,219.818 85.5,196.5C 85.5267,188.606 86.1934,188.606 87.5,196.5C 90.1553,194.98 90.8219,195.48 89.5,198C 90.6319,202.517 91.6319,202.35 92.5,197.5C 98.6846,200.581 105.018,201.248 111.5,199.5 Z"/></g>
<g><path style="opacity:1" fill="#eae1e3" d="M 83.5,185.5 C 86.9352,189.438 90.6019,193.271 94.5,197C 99.8843,199.204 105.551,200.037 111.5,199.5C 105.018,201.248 98.6846,200.581 92.5,197.5C 91.6319,202.35 90.6319,202.517 89.5,198C 90.8219,195.48 90.1553,194.98 87.5,196.5C 86.1934,188.606 85.5267,188.606 85.5,196.5C 84.6931,192.979 84.0264,189.312 83.5,185.5 Z"/></g>
<g><path style="opacity:1" fill="#5e272a" d="M 122.5,194.5 C 120.853,196.326 118.853,197.66 116.5,198.5C 116.167,198.5 115.833,198.5 115.5,198.5C 117.336,196.412 119.669,195.079 122.5,194.5 Z"/></g>
<g><path style="opacity:1" fill="#a83628" d="M 292.5,195.5 C 292.573,197.027 291.906,198.027 290.5,198.5C 290.427,196.973 291.094,195.973 292.5,195.5 Z"/></g>
<g><path style="opacity:1" fill="#ea593a" d="M 301.5,186.5 C 309.024,191.095 316.691,195.429 324.5,199.5C 324.833,199.167 325.167,198.833 325.5,198.5C 324.075,195.312 322.408,192.312 320.5,189.5C 321.167,189.5 321.5,189.167 321.5,188.5C 324.435,191.344 326.935,194.677 329,198.5C 329.494,200.134 329.66,201.801 329.5,203.5C 328.127,203.657 326.793,203.49 325.5,203C 322.057,200.612 318.39,198.778 314.5,197.5C 314.5,196.833 314.167,196.5 313.5,196.5C 312.089,194.461 310.089,193.461 307.5,193.5C 307.158,192.662 306.492,192.328 305.5,192.5C 305.389,191.883 305.056,191.383 304.5,191C 302.527,190.505 300.527,190.338 298.5,190.5C 299.6,189.442 300.934,188.608 302.5,188C 301.944,187.617 301.611,187.117 301.5,186.5 Z"/></g>
<g><path style="opacity:1" fill="#262e4f" d="M 122.5,194.5 C 123.649,194.791 124.316,195.624 124.5,197C 125.198,206.295 127.532,215.129 131.5,223.5C 126.553,230.115 120.887,236.115 114.5,241.5C 113.265,238.699 111.765,236.032 110,233.5C 109.163,231.179 108.83,228.845 109,226.5C 113.082,224.698 117.249,223.365 121.5,222.5C 118.823,214.783 117.156,206.783 116.5,198.5C 118.853,197.66 120.853,196.326 122.5,194.5 Z"/></g>
<g><path style="opacity:1" fill="#606182" d="M 289.5,201.5 C 289.504,207.142 288.504,212.475 286.5,217.5C 286.5,216.833 286.167,216.5 285.5,216.5C 283.538,210.721 284.871,205.721 289.5,201.5 Z"/></g>
<g><path style="opacity:1" fill="#f2e0aa" d="M 253.5,208.5 C 253.585,211.649 252.585,214.316 250.5,216.5C 250.733,213.458 251.733,210.792 253.5,208.5 Z"/></g>
<g><path style="opacity:1" fill="#ddeff7" d="M 253.5,207.5 C 257.732,210.958 260.732,215.292 262.5,220.5C 262.725,223.546 264.058,225.879 266.5,227.5C 268.104,228.287 268.771,229.62 268.5,231.5C 261.818,241.175 253.151,248.508 242.5,253.5C 240.634,246.774 241.301,240.441 244.5,234.5C 246.99,231.374 248.323,227.708 248.5,223.5C 249.566,221.299 250.233,218.965 250.5,216.5C 252.585,214.316 253.585,211.649 253.5,208.5C 253.5,208.167 253.5,207.833 253.5,207.5 Z"/></g>
<g><path style="opacity:1" fill="#fdc63a" d="M 233.5,210.5 C 235.364,210.321 237.364,210.821 239.5,212C 240.554,213.388 240.72,214.888 240,216.5C 235.391,218.612 230.891,220.945 226.5,223.5C 224.261,223.426 223.261,222.259 223.5,220C 223.625,218.373 224.125,216.873 225,215.5C 227.682,213.415 230.516,211.748 233.5,210.5 Z"/></g>
<g><path style="opacity:1" fill="#e64627" d="M 285.5,216.5 C 286.167,216.5 286.5,216.833 286.5,217.5C 288.55,219.547 290.883,221.214 293.5,222.5C 294.514,223.674 295.847,224.34 297.5,224.5C 297.973,225.906 298.973,226.573 300.5,226.5C 303.175,228.17 305.841,229.836 308.5,231.5C 306.323,231.414 304.323,230.747 302.5,229.5C 301.914,229.709 301.414,230.043 301,230.5C 299.115,228.197 296.615,227.03 293.5,227C 294.167,226.667 294.833,226.333 295.5,226C 293.781,224.943 291.947,224.11 290,223.5C 289.667,223.833 289.333,224.167 289,224.5C 288.632,223.09 287.799,222.09 286.5,221.5C 285.548,219.955 285.215,218.288 285.5,216.5 Z"/></g>
<g><path style="opacity:1" fill="#475883" d="M 131.5,223.5 C 133.601,228.355 136.268,233.021 139.5,237.5C 147.147,246.657 155.814,254.49 165.5,261C 169.027,261.808 172.36,261.641 175.5,260.5C 176.756,260.461 177.756,260.961 178.5,262C 169.084,262.119 159.751,262.286 150.5,262.5C 149.92,260.251 148.587,258.585 146.5,257.5C 146.167,257.5 145.833,257.5 145.5,257.5C 141.961,252.939 138.295,248.439 134.5,244C 132.711,243.48 131.044,243.813 129.5,245C 127.072,246.961 124.572,248.794 122,250.5C 118.565,248.306 116.065,245.306 114.5,241.5C 120.887,236.115 126.553,230.115 131.5,223.5 Z"/></g>
<g><path style="opacity:1" fill="#526795" d="M 127.5,190.5 C 128.167,190.5 128.833,190.5 129.5,190.5C 131.679,222.645 147.012,245.978 175.5,260.5C 172.36,261.641 169.027,261.808 165.5,261C 155.814,254.49 147.147,246.657 139.5,237.5C 136.268,233.021 133.601,228.355 131.5,223.5C 127.532,215.129 125.198,206.295 124.5,197C 124.316,195.624 123.649,194.791 122.5,194.5C 123.579,192.457 125.246,191.124 127.5,190.5 Z"/></g>
<g><path style="opacity:1" fill="#f0beb5" d="M 262.5,220.5 C 262.833,220.5 263.167,220.5 263.5,220.5C 264.312,222.945 265.312,225.278 266.5,227.5C 264.058,225.879 262.725,223.546 262.5,220.5 Z"/></g>
<g><path style="opacity:1" fill="#efac9f" d="M 297.5,224.5 C 299.027,224.427 300.027,225.094 300.5,226.5C 298.973,226.573 297.973,225.906 297.5,224.5 Z"/></g>
<g><path style="opacity:1" fill="#f6900c" d="M 247.5,223.5 C 246.703,227.223 245.703,230.89 244.5,234.5C 241.301,240.441 240.634,246.774 242.5,253.5C 241.766,254.878 241.099,256.378 240.5,258C 241.446,260.298 240.779,262.132 238.5,263.5C 228.582,262.526 218.582,262.193 208.5,262.5C 217.318,261.507 226.318,261.173 235.5,261.5C 234.046,255.135 232.38,248.801 230.5,242.5C 232.455,240.042 234.622,237.709 237,235.5C 238.828,230.006 242.161,225.673 247,222.5C 247.399,222.728 247.565,223.062 247.5,223.5 Z"/></g>
<g><path style="opacity:1" fill="#f1e2af" d="M 247.5,223.5 C 247.833,223.5 248.167,223.5 248.5,223.5C 248.323,227.708 246.99,231.374 244.5,234.5C 245.703,230.89 246.703,227.223 247.5,223.5 Z"/></g>
<g><path style="opacity:1" fill="#fa8f07" d="M 202.5,262.5 C 201.677,259.023 201.177,255.356 201,251.5C 200.79,253.058 200.29,254.391 199.5,255.5C 199.572,252.807 199.905,250.14 200.5,247.5C 200.363,244.049 199.03,243.549 196.5,246C 197.634,247.016 197.301,247.683 195.5,248C 195.833,248.333 196.167,248.667 196.5,249C 195.803,253.164 195.137,257.33 194.5,261.5C 191.789,261.815 189.456,261.148 187.5,259.5C 187.5,259.167 187.5,258.833 187.5,258.5C 188.539,252.203 188.706,245.87 188,239.5C 187.051,237.907 185.885,236.574 184.5,235.5C 184.5,235.167 184.5,234.833 184.5,234.5C 184.351,233.448 184.517,232.448 185,231.5C 192.863,235.62 200.363,238.787 207.5,241C 205.356,241.044 203.523,242.211 202,244.5C 202.239,250.465 202.406,256.465 202.5,262.5 Z"/></g>
<g><path style="opacity:1" fill="#d1e4f1" d="M 115.5,198.5 C 115.833,198.5 116.167,198.5 116.5,198.5C 117.156,206.783 118.823,214.783 121.5,222.5C 117.249,223.365 113.082,224.698 109,226.5C 108.83,228.845 109.163,231.179 110,233.5C 111.765,236.032 113.265,238.699 114.5,241.5C 116.065,245.306 118.565,248.306 122,250.5C 124.572,248.794 127.072,246.961 129.5,245C 131.044,243.813 132.711,243.48 134.5,244C 138.295,248.439 141.961,252.939 145.5,257.5C 143.571,257.769 141.905,257.269 140.5,256C 140.833,255.667 141.167,255.333 141.5,255C 140.027,254.29 139.36,253.124 139.5,251.5C 136.794,251.575 134.127,251.908 131.5,252.5C 130.353,247.798 128.019,247.298 124.5,251C 122.432,251.687 120.432,251.52 118.5,250.5C 117.522,250.977 116.689,251.643 116,252.5C 115.814,250.1 115.314,247.766 114.5,245.5C 112.533,244.318 111.2,244.985 110.5,247.5C 109.302,244.574 108.302,241.574 107.5,238.5C 108.397,233.858 108.397,229.192 107.5,224.5C 110.167,223.833 112.833,223.167 115.5,222.5C 115.692,219.399 116.358,216.399 117.5,213.5C 115.681,208.699 115.014,203.699 115.5,198.5 Z"/></g>
<g><path style="opacity:1" fill="#f0bdb4" d="M 311.5,232.5 C 312.833,232.5 314.167,232.5 315.5,232.5C 315.768,234.099 315.434,235.432 314.5,236.5C 314.229,234.57 313.229,233.236 311.5,232.5 Z"/></g>
<g><path style="opacity:1" fill="#1a1f39" d="M 276.5,236.5 C 279.397,237.129 282.064,238.129 284.5,239.5C 283.588,240.738 283.421,242.072 284,243.5C 287.44,246.462 290.94,249.295 294.5,252C 292.707,253.779 291.041,255.612 289.5,257.5C 282.269,255.215 275.936,251.382 270.5,246C 271.252,245.329 271.586,244.496 271.5,243.5C 272.921,240.991 274.588,238.657 276.5,236.5 Z"/></g>
<g><path style="opacity:1" fill="#dc3a2b" d="M 264.5,198.5 C 263.526,204.472 263.359,210.472 264,216.5C 268.327,229.492 277.327,236.492 291,237.5C 293.667,237.5 296.333,237.5 299,237.5C 302.825,236.79 306.658,235.956 310.5,235C 304.306,234.571 297.973,233.571 291.5,232C 289.934,231.392 288.6,230.558 287.5,229.5C 290.843,230.224 294.176,231.057 297.5,232C 301.358,232.81 305.024,232.643 308.5,231.5C 309.391,232.11 310.391,232.443 311.5,232.5C 313.229,233.236 314.229,234.57 314.5,236.5C 314.5,237.167 314.167,237.5 313.5,237.5C 309.511,237.116 305.845,237.783 302.5,239.5C 296.5,239.5 290.5,239.5 284.5,239.5C 282.064,238.129 279.397,237.129 276.5,236.5C 275.486,235.326 274.153,234.66 272.5,234.5C 272.306,232.088 270.973,231.088 268.5,231.5C 268.771,229.62 268.104,228.287 266.5,227.5C 265.312,225.278 264.312,222.945 263.5,220.5C 261.122,213.061 261.456,205.727 264.5,198.5 Z"/></g>
<g><path style="opacity:1" fill="#efe7c5" d="M 184.5,235.5 C 185.885,236.574 187.051,237.907 188,239.5C 188.706,245.87 188.539,252.203 187.5,258.5C 187.297,252.687 187.13,246.687 187,240.5C 185.628,239.09 184.795,237.423 184.5,235.5 Z"/></g>
<g><path style="opacity:1" fill="#f1bcb3" d="M 313.5,237.5 C 310.091,238.903 306.425,239.57 302.5,239.5C 305.845,237.783 309.511,237.116 313.5,237.5 Z"/></g>
<g><path style="opacity:1" fill="#506593" d="M 272.5,234.5 C 274.153,234.66 275.486,235.326 276.5,236.5C 274.588,238.657 272.921,240.991 271.5,243.5C 264.674,250.597 257.007,256.763 248.5,262C 246.866,262.494 245.199,262.66 243.5,262.5C 243.5,261.167 243.5,259.833 243.5,258.5C 254.965,252.704 264.632,244.704 272.5,234.5 Z"/></g>
<g><path style="opacity:1" fill="#2a3150" d="M 268.5,231.5 C 270.973,231.088 272.306,232.088 272.5,234.5C 264.632,244.704 254.965,252.704 243.5,258.5C 243.768,256.901 243.434,255.568 242.5,254.5C 242.5,254.167 242.5,253.833 242.5,253.5C 253.151,248.508 261.818,241.175 268.5,231.5 Z"/></g>
<g><path style="opacity:1" fill="#c0d1e0" d="M 146.5,257.5 C 148.587,258.585 149.92,260.251 150.5,262.5C 146.302,262.946 142.302,263.946 138.5,265.5C 138.5,264.5 138.5,263.5 138.5,262.5C 130.833,262.5 123.167,262.5 115.5,262.5C 124.991,261.67 134.658,261.17 144.5,261C 145.973,260.29 146.64,259.124 146.5,257.5 Z"/></g>
<g><path style="opacity:1" fill="#5c6379" d="M 390.5,263.5 C 392.978,262.836 395.645,262.503 398.5,262.5C 401.59,262.522 404.257,263.188 406.5,264.5C 401.26,263.551 395.927,263.218 390.5,263.5 Z"/></g>
<g><path style="opacity:1" fill="#2f3756" d="M 29.5,262.5 C 31.1667,262.5 32.8333,262.5 34.5,262.5C 35.2625,263.268 36.2625,263.768 37.5,264C 35.9739,265.887 33.9739,266.887 31.5,267C 34.7603,267.784 37.9269,267.617 41,266.5C 41.9435,267.263 42.4435,268.263 42.5,269.5C 41.9537,271.135 41.6204,272.801 41.5,274.5C 40.209,274.737 39.209,274.404 38.5,273.5C 40.1765,272.817 40.8432,271.483 40.5,269.5C 33.623,267.02 27.7897,268.353 23,273.5C 21.3436,282.68 25.1769,287.68 34.5,288.5C 40.8805,295.422 39.3805,299.422 30,300.5C 27.1523,300.202 24.3189,299.869 21.5,299.5C 21.2267,301.451 21.8934,302.951 23.5,304C 27.1516,304.499 30.8183,304.665 34.5,304.5C 31.6946,305.319 28.6946,305.819 25.5,306C 26.3366,307.011 26.67,308.178 26.5,309.5C 26.5,311.833 26.5,314.167 26.5,316.5C 26.5,319.833 26.5,323.167 26.5,326.5C 25.5119,321.36 25.1786,316.026 25.5,310.5C 21.3046,310.319 17.8046,308.653 15,305.5C 15.4853,299.437 16.9853,293.604 19.5,288C 14.5063,278.906 15.8396,270.906 23.5,264C 25.3453,262.872 27.3453,262.372 29.5,262.5 Z"/></g>
<g><path style="opacity:1" fill="#27304f" d="M 313.5,262.5 C 319.176,262.334 324.843,262.501 330.5,263C 333.259,266.16 335.926,266.16 338.5,263C 341,262.833 343.5,262.667 346,262.5C 351.913,263.04 357.747,264.04 363.5,265.5C 363.5,264.5 363.5,263.5 363.5,262.5C 368.844,262.334 374.177,262.501 379.5,263C 383.032,266.137 386.698,266.303 390.5,263.5C 395.927,263.218 401.26,263.551 406.5,264.5C 407.089,271.485 407.422,278.485 407.5,285.5C 407.442,293.521 407.776,301.521 408.5,309.5C 404.958,309.187 401.625,309.521 398.5,310.5C 398.821,315.695 398.487,320.695 397.5,325.5C 397.5,322.5 397.5,319.5 397.5,316.5C 397.5,314.167 397.5,311.833 397.5,309.5C 395.234,309.859 393.401,309.192 392,307.5C 391.5,308 391,308.5 390.5,309C 381.452,309.194 372.452,309.694 363.5,310.5C 361.868,309.703 360.368,308.703 359,307.5C 350.776,310.973 342.61,311.306 334.5,308.5C 325.015,310.038 315.681,309.704 306.5,307.5C 303.506,304.843 303.839,304.177 307.5,305.5C 308.429,304.311 308.762,302.978 308.5,301.5C 306.381,300.262 304.381,298.762 302.5,297C 303.022,296.439 303.355,295.772 303.5,295C 301.979,290.3 301.146,285.466 301,280.5C 299.127,279.911 297.46,280.578 296,282.5C 296.366,278.225 296.533,274.058 296.5,270C 296,269.5 295.5,269 295,268.5C 294.453,271.14 292.787,273.474 290,275.5C 286.435,273.947 283.101,274.28 280,276.5C 279.333,275.833 278.667,275.167 278,274.5C 277.503,277.146 277.336,279.813 277.5,282.5C 281.833,282.5 286.167,282.5 290.5,282.5C 290.784,284.415 290.451,286.081 289.5,287.5C 289.5,286.167 289.5,284.833 289.5,283.5C 285.167,283.5 280.833,283.5 276.5,283.5C 276.5,280.167 276.5,276.833 276.5,273.5C 281.363,273.819 286.03,273.486 290.5,272.5C 290.5,271.5 290.5,270.5 290.5,269.5C 284.355,268.51 278.022,268.177 271.5,268.5C 277.645,267.51 283.978,267.177 290.5,267.5C 290.5,266.5 290.5,265.5 290.5,264.5C 289.127,264.657 287.793,264.49 286.5,264C 289.817,263.502 293.15,263.335 296.5,263.5C 298.048,264.794 300.048,265.461 302.5,265.5C 304.5,265.333 306.5,265.167 308.5,265C 310.175,264.015 311.842,263.181 313.5,262.5 Z"/></g>
<g><path style="opacity:1" fill="#252e4e" d="M 134.5,187.5 C 134.334,191.846 134.501,196.179 135,200.5C 140.767,230.759 158.267,250.425 187.5,259.5C 187.263,260.791 187.596,261.791 188.5,262.5C 191.689,263.166 195.023,263.833 198.5,264.5C 199.664,268.013 200.998,271.346 202.5,274.5C 203.167,274.5 203.833,274.5 204.5,274.5C 207.318,271.491 208.651,267.825 208.5,263.5C 217.839,263.334 227.173,263.5 236.5,264C 237.085,265.302 237.751,266.469 238.5,267.5C 239.404,268.209 239.737,269.209 239.5,270.5C 239.5,271.5 239.5,272.5 239.5,273.5C 240.5,273.5 241.5,273.5 242.5,273.5C 242.185,269.629 242.518,265.962 243.5,262.5C 245.199,262.66 246.866,262.494 248.5,262C 257.007,256.763 264.674,250.597 271.5,243.5C 271.586,244.496 271.252,245.329 270.5,246C 275.936,251.382 282.269,255.215 289.5,257.5C 288.524,258.815 287.524,260.148 286.5,261.5C 289.977,262.167 293.311,262.834 296.5,263.5C 293.15,263.335 289.817,263.502 286.5,264C 287.793,264.49 289.127,264.657 290.5,264.5C 290.5,265.5 290.5,266.5 290.5,267.5C 283.978,267.177 277.645,267.51 271.5,268.5C 270.167,280.167 270.167,291.833 271.5,303.5C 277.979,304.491 284.646,304.824 291.5,304.5C 291.5,302.833 291.5,301.167 291.5,299.5C 286.5,299.5 281.5,299.5 276.5,299.5C 276.5,295.833 276.5,292.167 276.5,288.5C 281.032,288.818 285.366,288.485 289.5,287.5C 290.451,286.081 290.784,284.415 290.5,282.5C 286.167,282.5 281.833,282.5 277.5,282.5C 277.336,279.813 277.503,277.146 278,274.5C 278.667,275.167 279.333,275.833 280,276.5C 283.101,274.28 286.435,273.947 290,275.5C 292.787,273.474 294.453,271.14 295,268.5C 295.5,269 296,269.5 296.5,270C 296.533,274.058 296.366,278.225 296,282.5C 297.46,280.578 299.127,279.911 301,280.5C 301.146,285.466 301.979,290.3 303.5,295C 303.355,295.772 303.022,296.439 302.5,297C 304.381,298.762 306.381,300.262 308.5,301.5C 308.762,302.978 308.429,304.311 307.5,305.5C 303.839,304.177 303.506,304.843 306.5,307.5C 304.955,309.372 302.955,310.372 300.5,310.5C 278.509,309.316 256.509,309.316 234.5,310.5C 233.251,306.267 232.418,301.934 232,297.5C 230.667,298.167 229.333,298.833 228,299.5C 227.399,302.637 226.399,305.637 225,308.5C 223.527,310.007 221.693,310.674 219.5,310.5C 197.419,308.764 175.252,308.764 153,310.5C 148.11,310.321 143.61,308.988 139.5,306.5C 139.009,307.954 137.675,308.954 135.5,309.5C 130.759,309.692 126.093,310.025 121.5,310.5C 121.223,307.552 121.556,304.719 122.5,302C 122,301.833 121.5,301.667 121,301.5C 119.265,302.682 118.265,304.349 118,306.5C 115.139,306.092 114.972,306.925 117.5,309C 107.966,309.205 98.4655,309.705 89,310.5C 86.7341,309.293 84.9008,307.626 83.5,305.5C 82.5713,306.689 82.238,308.022 82.5,309.5C 62.8659,309.232 44.1992,309.232 26.5,309.5C 26.67,308.178 26.3366,307.011 25.5,306C 28.6946,305.819 31.6946,305.319 34.5,304.5C 41.4211,301.985 43.9211,296.985 42,289.5C 40.9609,288.29 39.7942,287.29 38.5,286.5C 35.904,285.243 33.2373,284.076 30.5,283C 26.9905,279.952 26.6572,276.619 29.5,273C 32.592,272.264 35.592,272.431 38.5,273.5C 39.209,274.404 40.209,274.737 41.5,274.5C 41.6204,272.801 41.9537,271.135 42.5,269.5C 42.4435,268.263 41.9435,267.263 41,266.5C 37.9269,267.617 34.7603,267.784 31.5,267C 33.9739,266.887 35.9739,265.887 37.5,264C 36.2625,263.768 35.2625,263.268 34.5,262.5C 35.8333,262.5 37.1667,262.5 38.5,262.5C 61.0688,263.177 83.7355,263.843 106.5,264.5C 108.948,265.473 111.615,265.806 114.5,265.5C 114.263,264.209 114.596,263.209 115.5,262.5C 123.167,262.5 130.833,262.5 138.5,262.5C 138.5,263.5 138.5,264.5 138.5,265.5C 142.302,263.946 146.302,262.946 150.5,262.5C 159.751,262.286 169.084,262.119 178.5,262C 177.756,260.961 176.756,260.461 175.5,260.5C 147.012,245.978 131.679,222.645 129.5,190.5C 129.833,189.833 130.167,189.167 130.5,188.5C 131.833,188.167 133.167,187.833 134.5,187.5 Z"/></g>
<g><path style="opacity:1" fill="#aebccb" d="M 264.5,260.5 C 265.376,260.369 266.043,260.702 266.5,261.5C 265.147,262.524 264.48,263.857 264.5,265.5C 262.801,265.66 261.134,265.494 259.5,265C 261.618,263.951 263.284,262.451 264.5,260.5 Z"/></g>
<g><path style="opacity:1" fill="#6b4635" d="M 242.5,254.5 C 243.434,255.568 243.768,256.901 243.5,258.5C 243.5,259.833 243.5,261.167 243.5,262.5C 242.518,265.962 242.185,269.629 242.5,273.5C 241.5,273.5 240.5,273.5 239.5,273.5C 239.5,272.5 239.5,271.5 239.5,270.5C 240.117,270.611 240.617,270.944 241,271.5C 241.633,265.839 242.133,260.172 242.5,254.5 Z"/></g>
<g><path style="opacity:1" fill="#d5801d" d="M 242.5,253.5 C 242.5,253.833 242.5,254.167 242.5,254.5C 242.133,260.172 241.633,265.839 241,271.5C 240.617,270.944 240.117,270.611 239.5,270.5C 239.737,269.209 239.404,268.209 238.5,267.5C 238.5,266.167 238.5,264.833 238.5,263.5C 240.779,262.132 241.446,260.298 240.5,258C 241.099,256.378 241.766,254.878 242.5,253.5 Z"/></g>
<g><path style="opacity:1" fill="#563c33" d="M 208.5,262.5 C 218.582,262.193 228.582,262.526 238.5,263.5C 238.5,264.833 238.5,266.167 238.5,267.5C 237.751,266.469 237.085,265.302 236.5,264C 227.173,263.5 217.839,263.334 208.5,263.5C 208.651,267.825 207.318,271.491 204.5,274.5C 204.5,273.833 204.5,273.167 204.5,272.5C 205.878,269.094 207.211,265.76 208.5,262.5 Z"/></g>
<g><path style="opacity:1" fill="#604035" d="M 188.5,262.5 C 192.226,262.177 195.893,262.511 199.5,263.5C 201.117,267.014 202.117,270.681 202.5,274.5C 200.998,271.346 199.664,268.013 198.5,264.5C 195.023,263.833 191.689,263.166 188.5,262.5 Z"/></g>
<g><path style="opacity:1" fill="#5e667c" d="M 38.5,262.5 C 61.5246,261.844 84.1913,262.51 106.5,264.5C 83.7355,263.843 61.0688,263.177 38.5,262.5 Z"/></g>
<g><path style="opacity:1" fill="#c76b14" d="M 202.5,262.5 C 202.159,266.16 202.825,269.493 204.5,272.5C 204.5,273.167 204.5,273.833 204.5,274.5C 203.833,274.5 203.167,274.5 202.5,274.5C 202.117,270.681 201.117,267.014 199.5,263.5C 195.893,262.511 192.226,262.177 188.5,262.5C 187.596,261.791 187.263,260.791 187.5,259.5C 189.456,261.148 191.789,261.815 194.5,261.5C 196.167,261.5 197.833,261.5 199.5,261.5C 199.5,259.5 199.5,257.5 199.5,255.5C 200.29,254.391 200.79,253.058 201,251.5C 201.177,255.356 201.677,259.023 202.5,262.5 Z"/></g>
<g><path style="opacity:1" fill="#f9a208" d="M 199.5,255.5 C 199.5,257.5 199.5,259.5 199.5,261.5C 197.833,261.5 196.167,261.5 194.5,261.5C 195.137,257.33 195.803,253.164 196.5,249C 196.167,248.667 195.833,248.333 195.5,248C 197.301,247.683 197.634,247.016 196.5,246C 199.03,243.549 200.363,244.049 200.5,247.5C 199.905,250.14 199.572,252.807 199.5,255.5 Z"/></g>
<g><path style="opacity:1" fill="#848d9f" d="M 167.5,269.5 C 173.979,268.509 180.646,268.176 187.5,268.5C 187.768,270.099 187.434,271.432 186.5,272.5C 186.5,271.5 186.5,270.5 186.5,269.5C 180.5,269.5 174.5,269.5 168.5,269.5C 168.167,269.5 167.833,269.5 167.5,269.5 Z"/></g>
<g><path style="opacity:1" fill="#e5e8ed" d="M 141.5,282.5 C 140.539,284.265 140.205,286.265 140.5,288.5C 139.5,288.5 138.5,288.5 137.5,288.5C 137.5,285.833 137.5,283.167 137.5,280.5C 142.327,269.51 150.66,265.843 162.5,269.5C 162.5,270.833 162.5,272.167 162.5,273.5C 154.803,270.93 148.303,272.597 143,278.5C 142.209,279.745 141.709,281.078 141.5,282.5 Z"/></g>
<g><path style="opacity:1" fill="#61697f" d="M 252.5,268.5 C 253.494,278.653 253.828,288.986 253.5,299.5C 258.363,299.181 263.03,299.514 267.5,300.5C 262.5,300.5 257.5,300.5 252.5,300.5C 252.5,290.167 252.5,279.833 252.5,269.5C 252.5,269.167 252.5,268.833 252.5,268.5 Z"/></g>
<g><path style="opacity:1" fill="#61687e" d="M 271.5,268.5 C 278.022,268.177 284.355,268.51 290.5,269.5C 284.5,269.5 278.5,269.5 272.5,269.5C 271.505,280.654 271.172,291.988 271.5,303.5C 270.167,291.833 270.167,280.167 271.5,268.5 Z"/></g>
<g><path style="opacity:1" fill="#e4e8ed" d="M 308.5,281.5 C 307.629,285.021 306.795,288.688 306,292.5C 305.148,291.429 304.315,290.429 303.5,289.5C 303.552,285.802 303.886,282.135 304.5,278.5C 309.499,269.344 317.166,266.177 327.5,269C 329.107,270.049 329.773,271.549 329.5,273.5C 324.86,272.603 320.194,272.436 315.5,273C 311.857,274.805 309.524,277.638 308.5,281.5 Z"/></g>
<g><path style="opacity:1" fill="#9da6b6" d="M 66.5,269.5 C 60.5,269.5 54.5,269.5 48.5,269.5C 48.5,275.833 48.5,282.167 48.5,288.5C 48.5,293.5 48.5,298.5 48.5,303.5C 54.8333,303.5 61.1667,303.5 67.5,303.5C 61.021,304.491 54.3543,304.824 47.5,304.5C 47.5,292.5 47.5,280.5 47.5,268.5C 54.0221,268.177 60.3554,268.51 66.5,269.5 Z"/></g>
<g><path style="opacity:0.999" fill="#f4f5f7" d="M 66.5,269.5 C 66.5,270.5 66.5,271.5 66.5,272.5C 61.8333,272.5 57.1667,272.5 52.5,272.5C 52.5,276.167 52.5,279.833 52.5,283.5C 56.6344,284.485 60.9677,284.818 65.5,284.5C 65.5,285.5 65.5,286.5 65.5,287.5C 61.1667,287.5 56.8333,287.5 52.5,287.5C 51.2921,288.234 49.9587,288.567 48.5,288.5C 48.5,282.167 48.5,275.833 48.5,269.5C 54.5,269.5 60.5,269.5 66.5,269.5 Z"/></g>
<g><path style="opacity:1" fill="#414963" d="M 101.5,269.5 C 99.712,269.215 98.0453,269.548 96.5,270.5C 97.3094,272.071 97.6427,273.738 97.5,275.5C 96.7677,274.192 95.9344,272.858 95,271.5C 94.832,278.214 93.6654,284.547 91.5,290.5C 88.8259,289.501 88.1592,287.834 89.5,285.5C 93.2403,282.401 94.407,278.401 93,273.5C 91.5002,271.531 89.6669,270.198 87.5,269.5C 89.861,269.674 92.1944,270.007 94.5,270.5C 94.5,269.5 94.5,268.5 94.5,267.5C 97.3878,266.99 99.7211,267.656 101.5,269.5 Z"/></g>
<g><path style="opacity:1" fill="#eaecf1" d="M 101.5,269.5 C 101.5,269.833 101.5,270.167 101.5,270.5C 101.345,273.716 102.345,276.383 104.5,278.5C 105.15,280.435 105.483,282.435 105.5,284.5C 105.5,285.833 105.5,287.167 105.5,288.5C 104.5,288.5 103.5,288.5 102.5,288.5C 101.006,284.007 99.3397,279.673 97.5,275.5C 97.6427,273.738 97.3094,272.071 96.5,270.5C 98.0453,269.548 99.712,269.215 101.5,269.5 Z"/></g>
<g><path style="opacity:0.999" fill="#eff5f9" d="M 168.5,269.5 C 174.5,269.5 180.5,269.5 186.5,269.5C 186.5,270.5 186.5,271.5 186.5,272.5C 181.833,272.5 177.167,272.5 172.5,272.5C 172.5,276.5 172.5,280.5 172.5,284.5C 176.833,284.5 181.167,284.5 185.5,284.5C 185.5,285.5 185.5,286.5 185.5,287.5C 181.167,287.5 176.833,287.5 172.5,287.5C 171.514,291.97 171.181,296.637 171.5,301.5C 176.544,301.173 181.544,301.506 186.5,302.5C 180.537,303.496 174.537,303.829 168.5,303.5C 168.5,292.167 168.5,280.833 168.5,269.5 Z"/></g>
<g><path style="opacity:1" fill="#ebeef2" d="M 198.5,285.5 C 198.854,288.494 197.854,289.494 195.5,288.5C 193.197,282.632 191.197,276.632 189.5,270.5C 191.045,269.548 192.712,269.215 194.5,269.5C 195.833,274.833 197.167,280.167 198.5,285.5 Z"/></g>
<g><path style="opacity:1" fill="#e9ecf1" d="M 210.5,289.5 C 208.876,291.137 207.876,290.803 207.5,288.5C 208.156,286.547 208.489,284.547 208.5,282.5C 209.663,278.518 210.829,274.518 212,270.5C 213.356,269.62 214.856,269.286 216.5,269.5C 215.425,276.471 213.425,283.138 210.5,289.5 Z"/></g>
<g><path style="opacity:1" fill="#e3e9ef" d="M 237.5,285.5 C 237.917,288.079 237.25,290.246 235.5,292C 231.5,292.667 227.5,292.667 223.5,292C 226.958,290.585 230.625,290.085 234.5,290.5C 234.768,288.901 234.434,287.568 233.5,286.5C 233.075,282.393 231.575,278.726 229,275.5C 227.678,279.624 226.178,283.624 224.5,287.5C 222.402,288.914 221.402,288.248 221.5,285.5C 222.829,280.184 224.162,274.851 225.5,269.5C 228.119,269.232 230.619,269.565 233,270.5C 235.197,275.261 236.697,280.261 237.5,285.5 Z"/></g>
<g><path style="opacity:0.999" fill="#f1f2f5" d="M 272.5,269.5 C 278.5,269.5 284.5,269.5 290.5,269.5C 290.5,270.5 290.5,271.5 290.5,272.5C 285.5,272.5 280.5,272.5 275.5,272.5C 275.185,276.371 275.518,280.038 276.5,283.5C 280.833,283.5 285.167,283.5 289.5,283.5C 289.5,284.833 289.5,286.167 289.5,287.5C 284.833,287.5 280.167,287.5 275.5,287.5C 274.5,287.5 273.5,287.5 272.5,287.5C 272.5,281.5 272.5,275.5 272.5,269.5 Z"/></g>
<g><path style="opacity:1" fill="#e8ebf0" d="M 362.5,281.5 C 361.701,295.533 360.034,295.866 357.5,282.5C 355.655,273.957 350.655,270.957 342.5,273.5C 340.629,273.859 339.129,274.859 338,276.5C 336.096,279.923 335.263,283.59 335.5,287.5C 334.292,288.234 332.959,288.567 331.5,288.5C 331.5,286.167 331.5,283.833 331.5,281.5C 333.186,272.978 338.353,268.645 347,268.5C 355.687,268.691 360.854,273.024 362.5,281.5 Z"/></g>
<g><path style="opacity:1" fill="#e8eef3" d="M 380.5,285.5 C 380.179,287.048 379.179,287.715 377.5,287.5C 375.704,283.581 374.204,279.581 373,275.5C 371.836,283.459 371.336,291.459 371.5,299.5C 370.069,299.881 369.236,300.881 369,302.5C 368.5,295.508 368.334,288.508 368.5,281.5C 368.5,277.5 368.5,273.5 368.5,269.5C 371.119,269.232 373.619,269.565 376,270.5C 377.657,275.461 379.157,280.461 380.5,285.5 Z"/></g>
<g><path style="opacity:1" fill="#e8eff4" d="M 394.5,269.5 C 396.5,269.5 398.5,269.5 400.5,269.5C 400.502,276.52 400.835,283.52 401.5,290.5C 401.5,294.833 401.5,299.167 401.5,303.5C 400.5,303.5 399.5,303.5 398.5,303.5C 397.521,300.375 397.187,297.042 397.5,293.5C 397.83,287.132 397.496,280.798 396.5,274.5C 395.702,274.957 395.369,275.624 395.5,276.5C 394.105,278.054 393.439,277.721 393.5,275.5C 394.156,273.547 394.489,271.547 394.5,269.5 Z"/></g>
<g><path style="opacity:1" fill="#e3e7ec" d="M 38.5,273.5 C 35.592,272.431 32.592,272.264 29.5,273C 26.6572,276.619 26.9905,279.952 30.5,283C 33.2373,284.076 35.904,285.243 38.5,286.5C 37.8166,288.176 36.4832,288.843 34.5,288.5C 25.1769,287.68 21.3436,282.68 23,273.5C 27.7897,268.353 33.623,267.02 40.5,269.5C 40.8432,271.483 40.1765,272.817 38.5,273.5 Z"/></g>
<g><path style="opacity:1" fill="#6c758a" d="M 394.5,269.5 C 396.607,268.532 398.941,268.198 401.5,268.5C 401.629,275.845 401.962,283.178 402.5,290.5C 402.167,290.5 401.833,290.5 401.5,290.5C 400.835,283.52 400.502,276.52 400.5,269.5C 398.5,269.5 396.5,269.5 394.5,269.5 Z"/></g>
<g><path style="opacity:1" fill="#989faf" d="M 101.5,270.5 C 102.871,272.936 103.871,275.603 104.5,278.5C 102.345,276.383 101.345,273.716 101.5,270.5 Z"/></g>
<g><path style="opacity:1" fill="#80899c" d="M 290.5,272.5 C 286.03,273.486 281.363,273.819 276.5,273.5C 276.5,276.833 276.5,280.167 276.5,283.5C 275.518,280.038 275.185,276.371 275.5,272.5C 280.5,272.5 285.5,272.5 290.5,272.5 Z"/></g>
<g><path style="opacity:1" fill="#242c4c" d="M 357.5,282.5 C 359.504,295.322 354.171,301.156 341.5,300C 338.735,297.404 337.068,294.237 336.5,290.5C 336.184,287.022 336.684,283.688 338,280.5C 339.734,279.751 341.567,279.251 343.5,279C 341.19,277.541 340.857,275.708 342.5,273.5C 350.655,270.957 355.655,273.957 357.5,282.5 Z"/></g>
<g><path style="opacity:1" fill="#464e69" d="M 342.5,273.5 C 340.857,275.708 341.19,277.541 343.5,279C 341.567,279.251 339.734,279.751 338,280.5C 336.684,283.688 336.184,287.022 336.5,290.5C 335.596,289.791 335.263,288.791 335.5,287.5C 335.263,283.59 336.096,279.923 338,276.5C 339.129,274.859 340.629,273.859 342.5,273.5 Z"/></g>
<g><path style="opacity:1" fill="#303856" d="M 233.5,286.5 C 233.5,287.5 233.5,288.5 233.5,289.5C 229.988,290.055 226.988,289.388 224.5,287.5C 226.178,283.624 227.678,279.624 229,275.5C 231.575,278.726 233.075,282.393 233.5,286.5 Z"/></g>
<g><path style="opacity:1" fill="#9aa3b4" d="M 52.5,283.5 C 57.1667,283.5 61.8333,283.5 66.5,283.5C 66.5,284.833 66.5,286.167 66.5,287.5C 66.1667,287.5 65.8333,287.5 65.5,287.5C 65.5,286.5 65.5,285.5 65.5,284.5C 60.9677,284.818 56.6344,284.485 52.5,283.5 Z"/></g>
<g><path style="opacity:1" fill="#8790a2" d="M 304.5,278.5 C 303.886,282.135 303.552,285.802 303.5,289.5C 302.098,285.71 302.431,282.044 304.5,278.5 Z"/></g>
<g><path style="opacity:1" fill="#6b748a" d="M 72.5,269.5 C 72.5,280.833 72.5,292.167 72.5,303.5C 73.8333,303.5 75.1667,303.5 76.5,303.5C 76.5,298.5 76.5,293.5 76.5,288.5C 78.5,288.5 80.5,288.5 82.5,288.5C 82.5,288.833 82.5,289.167 82.5,289.5C 80.8333,289.5 79.1667,289.5 77.5,289.5C 77.5,294.5 77.5,299.5 77.5,304.5C 75.5,304.5 73.5,304.5 71.5,304.5C 71.1717,292.655 71.5051,280.988 72.5,269.5 Z"/></g>
<g><path style="opacity:1" fill="#eaf0f5" d="M 87.5,269.5 C 89.6669,270.198 91.5002,271.531 93,273.5C 94.407,278.401 93.2403,282.401 89.5,285.5C 88.7611,285.631 88.0944,285.464 87.5,285C 88.8228,284.184 89.4894,283.017 89.5,281.5C 89.9452,278.635 89.2785,276.135 87.5,274C 84.2744,272.801 80.941,272.301 77.5,272.5C 76.5151,276.634 76.1818,280.968 76.5,285.5C 79.1667,285.5 81.8333,285.5 84.5,285.5C 86.0481,285.821 86.7148,286.821 86.5,288.5C 85.1667,288.5 83.8333,288.5 82.5,288.5C 80.5,288.5 78.5,288.5 76.5,288.5C 76.5,293.5 76.5,298.5 76.5,303.5C 75.1667,303.5 73.8333,303.5 72.5,303.5C 72.5,292.167 72.5,280.833 72.5,269.5C 77.4001,268.2 82.4001,268.2 87.5,269.5 Z"/></g>
<g><path style="opacity:1" fill="#282f50" d="M 77.5,272.5 C 80.941,272.301 84.2744,272.801 87.5,274C 89.2785,276.135 89.9452,278.635 89.5,281.5C 88.078,282.925 86.4113,283.925 84.5,284.5C 82.1667,284.5 79.8333,284.5 77.5,284.5C 77.5,280.5 77.5,276.5 77.5,272.5 Z"/></g>
<g><path style="opacity:1" fill="#646b81" d="M 77.5,272.5 C 77.5,276.5 77.5,280.5 77.5,284.5C 79.8333,284.5 82.1667,284.5 84.5,284.5C 84.5,284.833 84.5,285.167 84.5,285.5C 81.8333,285.5 79.1667,285.5 76.5,285.5C 76.1818,280.968 76.5151,276.634 77.5,272.5 Z"/></g>
<g><path style="opacity:1" fill="#6a7389" d="M 186.5,272.5 C 182.366,273.485 178.032,273.818 173.5,273.5C 173.5,276.833 173.5,280.167 173.5,283.5C 177.833,283.5 182.167,283.5 186.5,283.5C 186.5,285.167 186.5,286.833 186.5,288.5C 181.833,288.5 177.167,288.5 172.5,288.5C 172.5,288.167 172.5,287.833 172.5,287.5C 176.833,287.5 181.167,287.5 185.5,287.5C 185.5,286.5 185.5,285.5 185.5,284.5C 181.167,284.5 176.833,284.5 172.5,284.5C 172.5,280.5 172.5,276.5 172.5,272.5C 177.167,272.5 181.833,272.5 186.5,272.5 Z"/></g>
<g><path style="opacity:1" fill="#d4e9f5" d="M 52.5,287.5 C 52.5,291.833 52.5,296.167 52.5,300.5C 57.5,300.5 62.5,300.5 67.5,300.5C 67.5,301.5 67.5,302.5 67.5,303.5C 61.1667,303.5 54.8333,303.5 48.5,303.5C 48.5,298.5 48.5,293.5 48.5,288.5C 49.9587,288.567 51.2921,288.234 52.5,287.5 Z"/></g>
<g><path style="opacity:1" fill="#505872" d="M 52.5,287.5 C 56.8333,287.5 61.1667,287.5 65.5,287.5C 65.8333,287.5 66.1667,287.5 66.5,287.5C 62.3656,288.485 58.0323,288.818 53.5,288.5C 53.5,292.167 53.5,295.833 53.5,299.5C 58.3633,299.181 63.03,299.514 67.5,300.5C 62.5,300.5 57.5,300.5 52.5,300.5C 52.5,296.167 52.5,291.833 52.5,287.5 Z"/></g>
<g><path style="opacity:1" fill="#a5afbf" d="M 127.5,268.5 C 129.167,268.5 130.833,268.5 132.5,268.5C 132.5,280.5 132.5,292.5 132.5,304.5C 130.833,304.5 129.167,304.5 127.5,304.5C 127.5,292.5 127.5,280.5 127.5,268.5 Z"/></g>
<g><path style="opacity:1" fill="#e7f5fd" d="M 128.5,269.5 C 129.5,269.5 130.5,269.5 131.5,269.5C 131.5,280.833 131.5,292.167 131.5,303.5C 130.5,303.5 129.5,303.5 128.5,303.5C 128.5,292.167 128.5,280.833 128.5,269.5 Z"/></g>
<g><path style="opacity:1" fill="#868fa2" d="M 252.5,268.5 C 252.5,268.833 252.5,269.167 252.5,269.5C 251.167,269.5 249.833,269.5 248.5,269.5C 248.5,280.833 248.5,292.167 248.5,303.5C 254.833,303.5 261.167,303.5 267.5,303.5C 267.5,302.5 267.5,301.5 267.5,300.5C 268.434,301.568 268.768,302.901 268.5,304.5C 261.5,304.5 254.5,304.5 247.5,304.5C 247.5,292.5 247.5,280.5 247.5,268.5C 249.167,268.5 250.833,268.5 252.5,268.5 Z"/></g>
<g><path style="opacity:1" fill="#798296" d="M 275.5,287.5 C 280.167,287.5 284.833,287.5 289.5,287.5C 285.366,288.485 281.032,288.818 276.5,288.5C 276.5,292.167 276.5,295.833 276.5,299.5C 281.5,299.5 286.5,299.5 291.5,299.5C 291.5,301.167 291.5,302.833 291.5,304.5C 284.646,304.824 277.979,304.491 271.5,303.5C 277.833,303.5 284.167,303.5 290.5,303.5C 290.5,302.5 290.5,301.5 290.5,300.5C 285.5,300.5 280.5,300.5 275.5,300.5C 275.5,296.167 275.5,291.833 275.5,287.5 Z"/></g>
<g><path style="opacity:1" fill="#c6d8e6" d="M 221.5,285.5 C 221.402,288.248 222.402,288.914 224.5,287.5C 226.988,289.388 229.988,290.055 233.5,289.5C 233.5,288.5 233.5,287.5 233.5,286.5C 234.434,287.568 234.768,288.901 234.5,290.5C 230.625,290.085 226.958,290.585 223.5,292C 227.5,292.667 231.5,292.667 235.5,292C 237.25,290.246 237.917,288.079 237.5,285.5C 240.008,291.682 242.341,298.015 244.5,304.5C 242.533,304.739 240.699,304.406 239,303.5C 237.857,300.223 237.023,296.89 236.5,293.5C 231.833,293.5 227.167,293.5 222.5,293.5C 221.301,297.099 220.301,300.765 219.5,304.5C 217.712,304.785 216.045,304.452 214.5,303.5C 216.848,297.384 219.181,291.384 221.5,285.5 Z"/></g>
<g><path style="opacity:1" fill="#c7d9e6" d="M 308.5,281.5 C 306.175,295.169 311.842,301.503 325.5,300.5C 326.5,300.5 327.5,300.5 328.5,300.5C 328.5,301.5 328.5,302.5 328.5,303.5C 327.209,303.263 326.209,303.596 325.5,304.5C 319.454,305.198 313.787,304.198 308.5,301.5C 305.744,297.983 304.077,293.983 303.5,289.5C 304.315,290.429 305.148,291.429 306,292.5C 306.795,288.688 307.629,285.021 308.5,281.5 Z"/></g>
<g><path style="opacity:1" fill="#798195" d="M 397.5,293.5 C 396.833,287.833 396.167,282.167 395.5,276.5C 395.369,275.624 395.702,274.957 396.5,274.5C 397.496,280.798 397.83,287.132 397.5,293.5 Z"/></g>
<g><path style="opacity:1" fill="#cbddea" d="M 89.5,281.5 C 89.4894,283.017 88.8228,284.184 87.5,285C 88.0944,285.464 88.7611,285.631 89.5,285.5C 88.1592,287.834 88.8259,289.501 91.5,290.5C 93.0065,295.03 94.0065,299.697 94.5,304.5C 92.8561,304.714 91.3561,304.38 90,303.5C 89.3374,299.346 88.1707,295.346 86.5,291.5C 85.3777,290.37 84.0443,289.703 82.5,289.5C 82.5,289.167 82.5,288.833 82.5,288.5C 83.8333,288.5 85.1667,288.5 86.5,288.5C 86.7148,286.821 86.0481,285.821 84.5,285.5C 84.5,285.167 84.5,284.833 84.5,284.5C 86.4113,283.925 88.078,282.925 89.5,281.5 Z"/></g>
<g><path style="opacity:1" fill="#d0e1ed" d="M 394.5,269.5 C 394.489,271.547 394.156,273.547 393.5,275.5C 393.439,277.721 394.105,278.054 395.5,276.5C 392.302,285.427 389.302,294.427 386.5,303.5C 384.833,303.5 383.167,303.5 381.5,303.5C 380.758,297.956 379.425,292.623 377.5,287.5C 379.179,287.715 380.179,287.048 380.5,285.5C 381.508,288.526 382.841,291.526 384.5,294.5C 387.945,286.108 391.279,277.775 394.5,269.5 Z"/></g>
<g><path style="opacity:1" fill="#cde0ed" d="M 38.5,286.5 C 39.7942,287.29 40.9609,288.29 42,289.5C 43.9211,296.985 41.4211,301.985 34.5,304.5C 30.8183,304.665 27.1516,304.499 23.5,304C 21.8934,302.951 21.2267,301.451 21.5,299.5C 24.3189,299.869 27.1523,300.202 30,300.5C 39.3805,299.422 40.8805,295.422 34.5,288.5C 36.4832,288.843 37.8166,288.176 38.5,286.5 Z"/></g>
<g><path style="opacity:1" fill="#d0dee9" d="M 102.5,288.5 C 103.5,288.5 104.5,288.5 105.5,288.5C 105.5,287.167 105.5,285.833 105.5,284.5C 107.595,288.163 109.095,292.163 110,296.5C 114.253,287.574 117.42,278.24 119.5,268.5C 121.604,268.201 123.604,268.534 125.5,269.5C 120.518,280.477 116.351,291.811 113,303.5C 111.301,304.406 109.467,304.739 107.5,304.5C 105.832,299.163 104.165,293.829 102.5,288.5 Z"/></g>
<g><path style="opacity:1" fill="#c8dae7" d="M 208.5,282.5 C 208.489,284.547 208.156,286.547 207.5,288.5C 207.876,290.803 208.876,291.137 210.5,289.5C 209.016,294.618 207.349,299.618 205.5,304.5C 203.533,304.739 201.699,304.406 200,303.5C 198.19,298.572 196.69,293.572 195.5,288.5C 197.854,289.494 198.854,288.494 198.5,285.5C 200.139,288.991 201.639,292.657 203,296.5C 204.841,291.77 206.674,287.103 208.5,282.5 Z"/></g>
<g><path style="opacity:1" fill="#1f2746" d="M 306.5,307.5 C 315.681,309.704 325.015,310.038 334.5,308.5C 342.61,311.306 350.776,310.973 359,307.5C 360.368,308.703 361.868,309.703 363.5,310.5C 372.452,309.694 381.452,309.194 390.5,309C 391,308.5 391.5,308 392,307.5C 393.401,309.192 395.234,309.859 397.5,309.5C 397.5,311.833 397.5,314.167 397.5,316.5C 396.71,317.609 396.21,318.942 396,320.5C 381.526,319.115 367.026,319.449 352.5,321.5C 335.004,321.442 317.504,321.442 300,321.5C 281.372,319.228 262.705,318.894 244,320.5C 237.855,317.306 231.522,317.306 225,320.5C 212.172,320.147 199.339,319.814 186.5,319.5C 179.475,319.912 172.475,320.579 165.5,321.5C 162.833,321.333 160.167,321.167 157.5,321C 156.584,320.626 155.75,320.126 155,319.5C 154.692,320.308 154.192,320.975 153.5,321.5C 148.698,320.744 143.864,320.078 139,319.5C 121.219,319.961 103.219,319.961 85,319.5C 71.8333,319.833 58.6667,320.167 45.5,320.5C 41.6229,321.197 37.7896,321.864 34,322.5C 33.6402,319.572 32.3068,318.906 30,320.5C 28.5879,319.314 27.4212,317.981 26.5,316.5C 26.5,314.167 26.5,311.833 26.5,309.5C 44.1992,309.232 62.8659,309.232 82.5,309.5C 82.238,308.022 82.5713,306.689 83.5,305.5C 84.9008,307.626 86.7341,309.293 89,310.5C 98.4655,309.705 107.966,309.205 117.5,309C 114.972,306.925 115.139,306.092 118,306.5C 118.265,304.349 119.265,302.682 121,301.5C 121.5,301.667 122,301.833 122.5,302C 121.556,304.719 121.223,307.552 121.5,310.5C 126.093,310.025 130.759,309.692 135.5,309.5C 137.675,308.954 139.009,307.954 139.5,306.5C 143.61,308.988 148.11,310.321 153,310.5C 175.252,308.764 197.419,308.764 219.5,310.5C 221.693,310.674 223.527,310.007 225,308.5C 226.399,305.637 227.399,302.637 228,299.5C 229.333,298.833 230.667,298.167 232,297.5C 232.418,301.934 233.251,306.267 234.5,310.5C 256.509,309.316 278.509,309.316 300.5,310.5C 302.955,310.372 304.955,309.372 306.5,307.5 Z"/></g>
<g><path style="opacity:1" fill="#caddeb" d="M 294.5,298.5 C 299.123,297.408 300.956,299.075 300,303.5C 295.325,305.334 293.492,303.667 294.5,298.5 Z"/></g>
<g><path style="opacity:1" fill="#9da7b8" d="M 401.5,290.5 C 401.833,290.5 402.167,290.5 402.5,290.5C 402.5,295.167 402.5,299.833 402.5,304.5C 400.901,304.768 399.568,304.434 398.5,303.5C 399.5,303.5 400.5,303.5 401.5,303.5C 401.5,299.167 401.5,294.833 401.5,290.5 Z"/></g>
<g><path style="opacity:1" fill="#b8c5d3" d="M 167.5,269.5 C 167.833,269.5 168.167,269.5 168.5,269.5C 168.5,280.833 168.5,292.167 168.5,303.5C 174.537,303.829 180.537,303.496 186.5,302.5C 181.544,301.506 176.544,301.173 171.5,301.5C 171.181,296.637 171.514,291.97 172.5,287.5C 172.5,287.833 172.5,288.167 172.5,288.5C 172.5,292.5 172.5,296.5 172.5,300.5C 177.5,300.5 182.5,300.5 187.5,300.5C 187.5,301.833 187.5,303.167 187.5,304.5C 180.833,304.5 174.167,304.5 167.5,304.5C 167.5,292.833 167.5,281.167 167.5,269.5 Z"/></g>
<g><path style="opacity:1" fill="#5a627a" d="M 407.5,285.5 C 408.533,293.655 409.2,301.988 409.5,310.5C 405.833,310.5 402.167,310.5 398.5,310.5C 401.625,309.521 404.958,309.187 408.5,309.5C 407.776,301.521 407.442,293.521 407.5,285.5 Z"/></g>
<g><path style="opacity:1" fill="#cde0ed" d="M 137.5,280.5 C 137.5,283.167 137.5,285.833 137.5,288.5C 138.5,288.5 139.5,288.5 140.5,288.5C 140.205,286.265 140.539,284.265 141.5,282.5C 141.282,297.609 148.615,303.609 163.5,300.5C 163.5,301.5 163.5,302.5 163.5,303.5C 143.919,307.569 135.252,299.903 137.5,280.5 Z"/></g>
<g><path style="opacity:1" fill="#d7eaf6" d="M 272.5,269.5 C 272.5,275.5 272.5,281.5 272.5,287.5C 273.5,287.5 274.5,287.5 275.5,287.5C 275.5,291.833 275.5,296.167 275.5,300.5C 280.5,300.5 285.5,300.5 290.5,300.5C 290.5,301.5 290.5,302.5 290.5,303.5C 284.167,303.5 277.833,303.5 271.5,303.5C 271.172,291.988 271.505,280.654 272.5,269.5 Z"/></g>
<g><path style="opacity:1" fill="#c9dce9" d="M 331.5,281.5 C 331.5,283.833 331.5,286.167 331.5,288.5C 332.959,288.567 334.292,288.234 335.5,287.5C 335.263,288.791 335.596,289.791 336.5,290.5C 337.068,294.237 338.735,297.404 341.5,300C 354.171,301.156 359.504,295.322 357.5,282.5C 360.034,295.866 361.701,295.533 362.5,281.5C 364.517,299.549 356.517,306.715 338.5,303C 331.615,297.181 329.282,290.015 331.5,281.5 Z"/></g>
<g><path style="opacity:1" fill="#e1eff8" d="M 252.5,269.5 C 252.5,279.833 252.5,290.167 252.5,300.5C 257.5,300.5 262.5,300.5 267.5,300.5C 267.5,301.5 267.5,302.5 267.5,303.5C 261.167,303.5 254.833,303.5 248.5,303.5C 248.5,292.167 248.5,280.833 248.5,269.5C 249.833,269.5 251.167,269.5 252.5,269.5 Z"/></g>
<g><path style="opacity:1" fill="#b8c8d7" d="M 368.5,281.5 C 368.334,288.508 368.5,295.508 369,302.5C 369.236,300.881 370.069,299.881 371.5,299.5C 371.5,301.167 371.5,302.833 371.5,304.5C 369.833,304.5 368.167,304.5 366.5,304.5C 366.882,296.661 367.549,288.995 368.5,281.5 Z"/></g>
<g><path style="opacity:1" fill="#6e778d" d="M 325.5,300.5 C 326.568,299.566 327.901,299.232 329.5,299.5C 329.5,301.167 329.5,302.833 329.5,304.5C 328.167,304.5 326.833,304.5 325.5,304.5C 326.209,303.596 327.209,303.263 328.5,303.5C 328.5,302.5 328.5,301.5 328.5,300.5C 327.5,300.5 326.5,300.5 325.5,300.5 Z"/></g>
<g><path style="opacity:1" fill="#262e4e" d="M 26.5,316.5 C 27.4212,317.981 28.5879,319.314 30,320.5C 32.3068,318.906 33.6402,319.572 34,322.5C 37.7896,321.864 41.6229,321.197 45.5,320.5C 58.6667,320.167 71.8333,319.833 85,319.5C 103.219,319.961 121.219,319.961 139,319.5C 143.864,320.078 148.698,320.744 153.5,321.5C 154.192,320.975 154.692,320.308 155,319.5C 155.75,320.126 156.584,320.626 157.5,321C 160.167,321.167 162.833,321.333 165.5,321.5C 172.475,320.579 179.475,319.912 186.5,319.5C 199.339,319.814 212.172,320.147 225,320.5C 231.522,317.306 237.855,317.306 244,320.5C 262.705,318.894 281.372,319.228 300,321.5C 317.504,321.442 335.004,321.442 352.5,321.5C 367.026,319.449 381.526,319.115 396,320.5C 396.21,318.942 396.71,317.609 397.5,316.5C 397.5,319.5 397.5,322.5 397.5,325.5C 395.641,338.7 388.307,347.367 375.5,351.5C 267.855,352.492 160.188,352.825 52.5,352.5C 38.2253,349.559 29.5586,340.892 26.5,326.5C 26.5,323.167 26.5,319.833 26.5,316.5 Z"/></g>
<g><path style="opacity:1" fill="#a9b1c0" d="M 110.5,327.5 C 112.288,327.215 113.955,327.548 115.5,328.5C 114.629,330.058 113.629,331.725 112.5,333.5C 113.376,334.251 114.376,334.751 115.5,335C 113.866,335.494 112.199,335.66 110.5,335.5C 110.5,332.833 110.5,330.167 110.5,327.5 Z"/></g>
<g><path style="opacity:1" fill="#788194" d="M 165.5,335.5 C 165.663,333.143 165.497,330.81 165,328.5C 164.722,329.416 164.222,330.082 163.5,330.5C 163.5,329.5 163.5,328.5 163.5,327.5C 164.5,327.5 165.5,327.5 166.5,327.5C 166.806,330.385 166.473,333.052 165.5,335.5 Z"/></g>
<g><path style="opacity:1" fill="#b5bcc9" d="M 169.5,327.5 C 170.748,328.334 171.415,329.667 171.5,331.5C 171.167,332.833 170.833,334.167 170.5,335.5C 169.52,332.914 169.187,330.247 169.5,327.5 Z"/></g>
<g><path style="opacity:1" fill="#7d8699" d="M 177.5,328.5 C 175.656,330.279 174.99,332.612 175.5,335.5C 174.527,333.052 174.194,330.385 174.5,327.5C 175.791,327.263 176.791,327.596 177.5,328.5 Z"/></g>
<g><path style="opacity:1" fill="#798296" d="M 202.5,328.5 C 201.275,329.152 200.608,330.319 200.5,332C 200.514,333.385 200.848,334.551 201.5,335.5C 201.44,336.043 201.107,336.376 200.5,336.5C 199.516,333.572 199.183,330.572 199.5,327.5C 200.791,327.263 201.791,327.596 202.5,328.5 Z"/></g>
<g><path style="opacity:1" fill="#b7bdca" d="M 214.5,327.5 C 215.496,327.414 216.329,327.748 217,328.5C 218.15,330.754 218.484,333.087 218,335.5C 216.204,334.233 214.371,334.233 212.5,335.5C 212.167,335 211.833,334.5 211.5,334C 212.789,331.965 213.789,329.799 214.5,327.5 Z"/></g>
<g><path style="opacity:1" fill="#b9c1cd" d="M 223.5,327.5 C 228.833,328.167 228.833,328.833 223.5,329.5C 222.79,332.86 224.124,334.693 227.5,335C 221.202,335.495 219.868,332.995 223.5,327.5 Z"/></g>
<g><path style="opacity:1" fill="#697186" d="M 237.5,335.5 C 237.663,333.143 237.497,330.81 237,328.5C 236.722,329.416 236.222,330.082 235.5,330.5C 235.5,329.5 235.5,328.5 235.5,327.5C 236.5,327.5 237.5,327.5 238.5,327.5C 238.806,330.385 238.473,333.052 237.5,335.5 Z"/></g>
<g><path style="opacity:1" fill="#bec3cf" d="M 241.5,327.5 C 242.748,328.334 243.415,329.667 243.5,331.5C 243.167,332.833 242.833,334.167 242.5,335.5C 241.52,332.914 241.187,330.247 241.5,327.5 Z"/></g>
<g><path style="opacity:1" fill="#8b93a4" d="M 305.5,327.5 C 306.5,327.5 307.5,327.5 308.5,327.5C 308.5,330.5 308.5,333.5 308.5,336.5C 307.5,336.5 306.5,336.5 305.5,336.5C 305.5,333.5 305.5,330.5 305.5,327.5 Z"/></g>
<g><path style="opacity:1" fill="#b2b9c6" d="M 311.5,327.5 C 313.467,327.261 315.301,327.594 317,328.5C 316.698,330.974 316.532,333.308 316.5,335.5C 315.522,335.023 314.689,334.357 314,333.5C 313.692,334.308 313.192,334.975 312.5,335.5C 311.52,332.914 311.187,330.247 311.5,327.5 Z"/></g>
<g><path style="opacity:1" fill="#b1b7c4" d="M 341.5,327.5 C 343.467,327.261 345.301,327.594 347,328.5C 346.698,330.974 346.532,333.308 346.5,335.5C 345.522,335.023 344.689,334.357 344,333.5C 343.692,334.308 343.192,334.975 342.5,335.5C 341.52,332.914 341.187,330.247 341.5,327.5 Z"/></g>
<g><path style="opacity:1" fill="#a2aab8" d="M 374.5,327.5 C 376.288,327.215 377.955,327.548 379.5,328.5C 378.629,330.058 377.629,331.725 376.5,333.5C 377.376,334.251 378.376,334.751 379.5,335C 377.866,335.494 376.199,335.66 374.5,335.5C 374.5,332.833 374.5,330.167 374.5,327.5 Z"/></g>
<g><path style="opacity:1" fill="#afb7c4" d="M 41.5,327.5 C 42.675,327.281 43.675,327.614 44.5,328.5C 45.961,330.811 46.2943,333.144 45.5,335.5C 43.8333,334.167 42.1667,334.167 40.5,335.5C 39.5219,332.732 39.8553,330.066 41.5,327.5 Z"/></g>
<g><path style="opacity:1" fill="#b8bfcc" d="M 67.5,327.5 C 72.443,327.288 73.1097,328.288 69.5,330.5C 70.0253,331.192 70.6919,331.692 71.5,332C 70.2298,332.9 69.2298,334.066 68.5,335.5C 67.52,332.914 67.1866,330.247 67.5,327.5 Z"/></g>
<g><path style="opacity:1" fill="#8b92a4" d="M 84.5,327.5 C 85.5,327.5 86.5,327.5 87.5,327.5C 87.5,330.167 87.5,332.833 87.5,335.5C 86.5,335.5 85.5,335.5 84.5,335.5C 84.5,332.833 84.5,330.167 84.5,327.5 Z"/></g>
<g><path style="opacity:1" fill="#b3bac7" d="M 142.5,327.5 C 143.822,327.33 144.989,327.663 146,328.5C 147.15,330.754 147.484,333.087 147,335.5C 144.768,334.813 142.602,334.479 140.5,334.5C 141.577,332.271 142.244,329.937 142.5,327.5 Z"/></g>
<g><path style="opacity:1" fill="#b1b9c6" d="M 151.5,327.5 C 155.971,327.672 156.304,328.506 152.5,330C 154.677,331.186 155.677,333.019 155.5,335.5C 153.712,335.785 152.045,335.452 150.5,334.5C 151.376,333.749 152.376,333.249 153.5,333C 150.541,331.954 149.874,330.121 151.5,327.5 Z"/></g>
<g><path style="opacity:1" fill="#bdc4d0" d="M 257.5,327.5 C 262.443,327.288 263.11,328.288 259.5,330.5C 260.025,331.192 260.692,331.692 261.5,332C 258.999,333.418 259.332,334.418 262.5,335C 260.866,335.494 259.199,335.66 257.5,335.5C 257.5,332.833 257.5,330.167 257.5,327.5 Z"/></g>
<g><path style="opacity:1" fill="#b5bcc9" d="M 270.5,327.5 C 272.167,327.5 273.833,327.5 275.5,327.5C 275.782,330.347 275.782,333.013 275.5,335.5C 274.522,335.023 273.689,334.357 273,333.5C 272.692,334.308 272.192,334.975 271.5,335.5C 270.52,332.914 270.187,330.247 270.5,327.5 Z"/></g>
<g><path style="opacity:1" fill="#bdc4cf" d="M 279.5,327.5 C 284.443,327.288 285.11,328.288 281.5,330.5C 282.025,331.192 282.692,331.692 283.5,332C 280.999,333.418 281.332,334.418 284.5,335C 282.866,335.494 281.199,335.66 279.5,335.5C 279.5,332.833 279.5,330.167 279.5,327.5 Z"/></g>
<g><path style="opacity:1" fill="#d0d4dc" d="M 335.5,329.5 C 335.577,330.75 336.244,331.583 337.5,332C 334.999,333.418 335.332,334.418 338.5,335C 336.866,335.494 335.199,335.66 333.5,335.5C 333.192,333.076 333.526,330.743 334.5,328.5C 335.107,328.624 335.44,328.957 335.5,329.5 Z"/></g>
<g><path style="opacity:1" fill="#9ea5b5" d="M 359.5,327.5 C 360.5,327.5 361.5,327.5 362.5,327.5C 362.5,330.167 362.5,332.833 362.5,335.5C 361.5,335.5 360.5,335.5 359.5,335.5C 359.5,332.833 359.5,330.167 359.5,327.5 Z"/></g>
<g><path style="opacity:1" fill="#b8bfcc" d="M 367.5,327.5 C 372.833,328.167 372.833,328.833 367.5,329.5C 367.5,330.833 367.5,332.167 367.5,333.5C 368.978,333.238 370.311,333.571 371.5,334.5C 366.383,336.552 364.55,334.885 366,329.5C 366.717,328.956 367.217,328.289 367.5,327.5 Z"/></g>
<g><path style="opacity:1" fill="#7d8699" d="M 180.5,328.5 C 180.56,327.957 180.893,327.624 181.5,327.5C 182.8,330.309 182.8,332.976 181.5,335.5C 181.802,332.941 181.468,330.607 180.5,328.5 Z"/></g>
<g><path style="opacity:1" fill="#b6bcc8" d="M 202.5,328.5 C 202.908,329.643 203.575,330.643 204.5,331.5C 206.684,327.538 208.017,327.705 208.5,332C 208.167,333.167 207.833,334.333 207.5,335.5C 206.808,334.975 206.308,334.308 206,333.5C 204.53,334.267 203.03,334.933 201.5,335.5C 200.848,334.551 200.514,333.385 200.5,332C 200.608,330.319 201.275,329.152 202.5,328.5 Z"/></g>
<g><path style="opacity:1" fill="#727b90" d="M 335.5,329.5 C 335.44,328.957 335.107,328.624 334.5,328.5C 333.526,330.743 333.192,333.076 333.5,335.5C 332.527,333.052 332.194,330.385 332.5,327.5C 334.604,327.201 336.604,327.534 338.5,328.5C 337.675,329.386 336.675,329.719 335.5,329.5 Z"/></g>
<g><path style="opacity:1" fill="#bfc5d1" d="M 75.5,327.5 C 77.4672,327.261 79.3005,327.594 81,328.5C 80.6984,330.974 80.5317,333.308 80.5,335.5C 79.1667,332.833 77.8333,332.833 76.5,335.5C 75.52,332.914 75.1866,330.247 75.5,327.5 Z"/></g>
<g><path style="opacity:1" fill="#bac2cf" d="M 90.5,327.5 C 96.2095,326.867 98.2095,329.2 96.5,334.5C 94.604,335.466 92.604,335.799 90.5,335.5C 90.5,332.833 90.5,330.167 90.5,327.5 Z"/></g>
<g><path style="opacity:1" fill="#414964" d="M 92.5,329.5 C 93.5,329.5 94.5,329.5 95.5,329.5C 95.8841,331.665 95.2174,333.332 93.5,334.5C 92.5481,332.955 92.2148,331.288 92.5,329.5 Z"/></g>
<g><path style="opacity:1" fill="#b9c0cc" d="M 127.5,327.5 C 129.776,327.756 130.943,329.09 131,331.5C 131.483,330.552 131.649,329.552 131.5,328.5C 132.93,328.421 134.264,328.754 135.5,329.5C 136.167,328.833 136.833,328.167 137.5,327.5C 137.949,330.044 137.949,332.71 137.5,335.5C 136.5,335.5 135.5,335.5 134.5,335.5C 134.688,333.897 134.188,332.563 133,331.5C 132.804,333.286 131.971,334.619 130.5,335.5C 128.929,333.029 127.929,330.363 127.5,327.5 Z"/></g>
<g><path style="opacity:1" fill="#d8dbe3" d="M 235.5,330.5 C 236.222,330.082 236.722,329.416 237,328.5C 237.497,330.81 237.663,333.143 237.5,335.5C 236.596,334.791 236.263,333.791 236.5,332.5C 235.167,332.5 233.833,332.5 232.5,332.5C 231.167,332.167 231.167,331.833 232.5,331.5C 233.791,331.737 234.791,331.404 235.5,330.5 Z"/></g>
<g><path style="opacity:1" fill="#a6adbc" d="M 287.5,327.5 C 292.123,326.408 293.956,328.075 293,332.5C 291.307,333.184 289.807,334.184 288.5,335.5C 287.52,332.914 287.187,330.247 287.5,327.5 Z"/></g>
<g><path style="opacity:1" fill="#b4bbc9" d="M 325.5,328.5 C 326.873,328.343 328.207,328.51 329.5,329C 328.833,329.333 328.167,329.667 327.5,330C 331.787,334.564 330.787,336.064 324.5,334.5C 325.376,333.749 326.376,333.249 327.5,333C 325.893,331.951 325.227,330.451 325.5,328.5 Z"/></g>
<g><path style="opacity:1" fill="#b5bdca" d="M 102.5,327.5 C 108.966,328.623 108.966,329.29 102.5,329.5C 102.369,334.766 103.702,335.433 106.5,331.5C 107.429,332.689 107.762,334.022 107.5,335.5C 100.378,336.206 98.7116,333.54 102.5,327.5 Z"/></g>
<g><path style="opacity:1" fill="#7b8497" d="M 161.5,330.5 C 160.778,330.082 160.278,329.416 160,328.5C 159.503,330.81 159.337,333.143 159.5,335.5C 158.527,333.052 158.194,330.385 158.5,327.5C 159.5,327.5 160.5,327.5 161.5,327.5C 161.5,328.5 161.5,329.5 161.5,330.5 Z"/></g>
<g><path style="opacity:1" fill="#cdd1d9" d="M 161.5,330.5 C 162.167,330.5 162.833,330.5 163.5,330.5C 164.222,330.082 164.722,329.416 165,328.5C 165.497,330.81 165.663,333.143 165.5,335.5C 163.952,335.179 163.285,334.179 163.5,332.5C 162.5,332.5 161.5,332.5 160.5,332.5C 160.737,333.791 160.404,334.791 159.5,335.5C 159.337,333.143 159.503,330.81 160,328.5C 160.278,329.416 160.778,330.082 161.5,330.5 Z"/></g>
<g><path style="opacity:1" fill="#b0b6c3" d="M 177.5,328.5 C 178.528,331.098 179.528,331.098 180.5,328.5C 181.468,330.607 181.802,332.941 181.5,335.5C 179.983,335.489 178.816,334.823 178,333.5C 177.583,334.756 176.75,335.423 175.5,335.5C 174.99,332.612 175.656,330.279 177.5,328.5 Z"/></g>
<g><path style="opacity:1" fill="#bec3ce" d="M 355.5,327.5 C 356.376,327.369 357.043,327.702 357.5,328.5C 356.838,332.151 354.838,334.484 351.5,335.5C 351.567,333.599 351.233,331.766 350.5,330C 350.833,329.5 351.167,329 351.5,328.5C 353.295,332.268 354.628,331.935 355.5,327.5 Z"/></g>
<g><path style="opacity:1" fill="#717a8e" d="M 235.5,330.5 C 234.791,331.404 233.791,331.737 232.5,331.5C 231.167,331.833 231.167,332.167 232.5,332.5C 233.833,332.5 235.167,332.5 236.5,332.5C 236.263,333.791 236.596,334.791 237.5,335.5C 237.44,336.043 237.107,336.376 236.5,336.5C 235.004,332.665 234.004,332.665 233.5,336.5C 232.5,336.5 231.5,336.5 230.5,336.5C 230.5,333.5 230.5,330.5 230.5,327.5C 231.5,327.5 232.5,327.5 233.5,327.5C 233.285,329.179 233.952,330.179 235.5,330.5 Z"/></g>
<g><path style="opacity:1" fill="#b6bdc9" d="M 298.5,327.5 C 299.496,327.414 300.329,327.748 301,328.5C 302.15,330.754 302.484,333.087 302,335.5C 300.204,334.233 298.371,334.233 296.5,335.5C 295.883,332.667 296.55,330 298.5,327.5 Z"/></g>
<g><path style="opacity:1" fill="#afb6c4" d="M 383.5,327.5 C 384.978,327.238 386.311,327.571 387.5,328.5C 386.975,329.192 386.308,329.692 385.5,330C 389.787,334.564 388.787,336.064 382.5,334.5C 383.376,333.749 384.376,333.249 385.5,333C 383.808,331.599 383.141,329.766 383.5,327.5 Z"/></g>
<g><path style="opacity:1" fill="#aeb5c2" d="M 50.5,327.5 C 51.9778,327.238 53.3112,327.571 54.5,328.5C 53.675,329.386 52.675,329.719 51.5,329.5C 51.5,330.833 51.5,332.167 51.5,333.5C 52.9778,333.238 54.3112,333.571 55.5,334.5C 48.7892,335.788 47.1225,333.455 50.5,327.5 Z"/></g>
<g><path style="opacity:1" fill="#adb4c1" d="M 186.5,327.5 C 188.288,327.215 189.955,327.548 191.5,328.5C 190.311,329.429 188.978,329.762 187.5,329.5C 187.215,331.288 187.548,332.955 188.5,334.5C 189.386,333.675 189.719,332.675 189.5,331.5C 190.5,331.5 191.5,331.5 192.5,331.5C 192.5,332.833 192.5,334.167 192.5,335.5C 185.251,336.283 183.251,333.616 186.5,327.5 Z"/></g>
<g><path style="opacity:1" fill="#5a627a" d="M 248.5,328.5 C 247.371,330.628 247.204,332.961 248,335.5C 248.333,334.167 248.667,332.833 249,331.5C 249.941,333.061 251.108,334.395 252.5,335.5C 253.647,333.235 253.814,330.902 253,328.5C 252.751,329.624 252.251,330.624 251.5,331.5C 250.893,331.376 250.56,331.043 250.5,330.5C 251.404,329.791 251.737,328.791 251.5,327.5C 252.5,327.5 253.5,327.5 254.5,327.5C 254.5,330.5 254.5,333.5 254.5,336.5C 251.833,336.5 249.167,336.5 246.5,336.5C 246.183,333.428 246.516,330.428 247.5,327.5C 248.107,327.624 248.44,327.957 248.5,328.5 Z"/></g>
<g><path style="opacity:1" fill="#d4d9e1" d="M 248.5,328.5 C 249.5,328.833 250.167,329.5 250.5,330.5C 250.56,331.043 250.893,331.376 251.5,331.5C 252.251,330.624 252.751,329.624 253,328.5C 253.814,330.902 253.647,333.235 252.5,335.5C 251.108,334.395 249.941,333.061 249,331.5C 248.667,332.833 248.333,334.167 248,335.5C 247.204,332.961 247.371,330.628 248.5,328.5 Z"/></g>
<g><path style="opacity:1" fill="#d4d7df" d="M 375.5,351.5 C 375.389,352.117 375.056,352.617 374.5,353C 266.999,353.833 159.666,353.666 52.5,352.5C 160.188,352.825 267.855,352.492 375.5,351.5 Z"/></g>
</svg>
